  0
SECTION
  2
HEADER
  9
$ACADVER
  1
AC1032
  9
$ACADMAINTVER
 90
      327
  9
$DWGCODEPAGE
  3
ANSI_1252
  9
$REQUIREDVERSIONS
160
                 0
  9
$INSBASE
 10
0.0
 20
0.0
 30
0.0
  9
$EXTMIN
 10
1.000000000000000E+20
 20
1.000000000000000E+20
 30
1.000000000000000E+20
  9
$EXTMAX
 10
-1.000000000000000E+20
 20
-1.000000000000000E+20
 30
-1.000000000000000E+20
  9
$LIMMIN
 10
0.0
 20
0.0
  9
$LIMMAX
 10
12.0
 20
9.0
  9
$ORTHOMODE
 70
     0
  9
$REGENMODE
 70
     1
  9
$FILLMODE
 70
     1
  9
$QTEXTMODE
 70
     0
  9
$MIRRTEXT
 70
     0
  9
$LTSCALE
 40
1.0
  9
$ATTMODE
 70
     1
  9
$TEXTSIZE
 40
0.2
  9
$TRACEWID
 40
0.05
  9
$TEXTSTYLE
  7
Standard
  9
$CLAYER
  8
0
  9
$CELTYPE
  6
ByLayer
  9
$CECOLOR
 62
   256
  9
$CELTSCALE
 40
1.0
  9
$DISPSILH
 70
     0
  9
$DIMSCALE
 40
1.0
  9
$DIMASZ
 40
0.18
  9
$DIMEXO
 40
0.0625
  9
$DIMDLI
 40
0.38
  9
$DIMRND
 40
0.0
  9
$DIMDLE
 40
0.0
  9
$DIMEXE
 40
0.18
  9
$DIMTP
 40
0.0
  9
$DIMTM
 40
0.0
  9
$DIMTXT
 40
0.18
  9
$DIMCEN
 40
0.09
  9
$DIMTSZ
 40
0.0
  9
$DIMTOL
 70
     0
  9
$DIMLIM
 70
     0
  9
$DIMTIH
 70
     1
  9
$DIMTOH
 70
     1
  9
$DIMSE1
 70
     0
  9
$DIMSE2
 70
     0
  9
$DIMTAD
 70
     0
  9
$DIMZIN
 70
     0
  9
$DIMBLK
  1

  9
$DIMASO
 70
     1
  9
$DIMSHO
 70
     1
  9
$DIMPOST
  1

  9
$DIMAPOST
  1

  9
$DIMALT
 70
     0
  9
$DIMALTD
 70
     2
  9
$DIMALTF
 40
25.4
  9
$DIMLFAC
 40
1.0
  9
$DIMTOFL
 70
     0
  9
$DIMTVP
 40
0.0
  9
$DIMTIX
 70
     0
  9
$DIMSOXD
 70
     0
  9
$DIMSAH
 70
     0
  9
$DIMBLK1
  1

  9
$DIMBLK2
  1

  9
$DIMSTYLE
  2
Standard
  9
$DIMCLRD
 70
     0
  9
$DIMCLRE
 70
     0
  9
$DIMCLRT
 70
     0
  9
$DIMTFAC
 40
1.0
  9
$DIMGAP
 40
0.09
  9
$DIMJUST
 70
     0
  9
$DIMSD1
 70
     0
  9
$DIMSD2
 70
     0
  9
$DIMTOLJ
 70
     1
  9
$DIMTZIN
 70
     0
  9
$DIMALTZ
 70
     0
  9
$DIMALTTZ
 70
     0
  9
$DIMUPT
 70
     0
  9
$DIMDEC
 70
     4
  9
$DIMTDEC
 70
     4
  9
$DIMALTU
 70
     2
  9
$DIMALTTD
 70
     2
  9
$DIMTXSTY
  7
Standard
  9
$DIMAUNIT
 70
     0
  9
$DIMADEC
 70
     0
  9
$DIMALTRND
 40
0.0
  9
$DIMAZIN
 70
     0
  9
$DIMDSEP
 70
    46
  9
$DIMATFIT
 70
     3
  9
$DIMFRAC
 70
     0
  9
$DIMLDRBLK
  1

  9
$DIMLUNIT
 70
     2
  9
$DIMLWD
 70
    -2
  9
$DIMLWE
 70
    -2
  9
$DIMTMOVE
 70
     0
  9
$DIMFXL
 40
1.0
  9
$DIMFXLON
 70
     0
  9
$DIMJOGANG
 40
0.7853981633974483
  9
$DIMTFILL
 70
     0
  9
$DIMTFILLCLR
 70
     0
  9
$DIMARCSYM
 70
     0
  9
$DIMLTYPE
  6

  9
$DIMLTEX1
  6

  9
$DIMLTEX2
  6

  9
$DIMTXTDIRECTION
 70
     0
  9
$LUNITS
 70
     2
  9
$LUPREC
 70
     4
  9
$SKETCHINC
 40
0.1
  9
$FILLETRAD
 40
0.0
  9
$AUNITS
 70
     0
  9
$AUPREC
 70
     0
  9
$MENU
  1
.
  9
$ELEVATION
 40
0.0
  9
$PELEVATION
 40
0.0
  9
$THICKNESS
 40
0.0
  9
$LIMCHECK
 70
     0
  9
$CHAMFERA
 40
0.0
  9
$CHAMFERB
 40
0.0
  9
$CHAMFERC
 40
0.0
  9
$CHAMFERD
 40
0.0
  9
$SKPOLY
 70
     0
  9
$TDCREATE
 40
2461188.814872685
  9
$TDUCREATE
 40
2461188.773206019
  9
$TDUPDATE
 40
2461188.814872685
  9
$TDUUPDATE
 40
2461188.773206019
  9
$TDINDWG
 40
0.0000000000
  9
$TDUSRTIMER
 40
0.0000000000
  9
$USRTIMER
 70
     1
  9
$ANGBASE
 50
0.0
  9
$ANGDIR
 70
     0
  9
$PDMODE
 70
     0
  9
$PDSIZE
 40
0.0
  9
$PLINEWID
 40
0.0
  9
$SPLFRAME
 70
     0
  9
$SPLINETYPE
 70
     6
  9
$SPLINESEGS
 70
     8
  9
$HANDSEED
  5
A0
  9
$SURFTAB1
 70
     6
  9
$SURFTAB2
 70
     6
  9
$SURFTYPE
 70
     6
  9
$SURFU
 70
     6
  9
$SURFV
 70
     6
  9
$UCSBASE
  2

  9
$UCSNAME
  2

  9
$UCSORG
 10
0.0
 20
0.0
 30
0.0
  9
$UCSXDIR
 10
1.0
 20
0.0
 30
0.0
  9
$UCSYDIR
 10
0.0
 20
1.0
 30
0.0
  9
$UCSORTHOREF
  2

  9
$UCSORTHOVIEW
 70
     0
  9
$UCSORGTOP
 10
0.0
 20
0.0
 30
0.0
  9
$UCSORGBOTTOM
 10
0.0
 20
0.0
 30
0.0
  9
$UCSORGLEFT
 10
0.0
 20
0.0
 30
0.0
  9
$UCSORGRIGHT
 10
0.0
 20
0.0
 30
0.0
  9
$UCSORGFRONT
 10
0.0
 20
0.0
 30
0.0
  9
$UCSORGBACK
 10
0.0
 20
0.0
 30
0.0
  9
$PUCSBASE
  2

  9
$PUCSNAME
  2

  9
$PUCSORG
 10
0.0
 20
0.0
 30
0.0
  9
$PUCSXDIR
 10
1.0
 20
0.0
 30
0.0
  9
$PUCSYDIR
 10
0.0
 20
1.0
 30
0.0
  9
$PUCSORTHOREF
  2

  9
$PUCSORTHOVIEW
 70
     0
  9
$PUCSORGTOP
 10
0.0
 20
0.0
 30
0.0
  9
$PUCSORGBOTTOM
 10
0.0
 20
0.0
 30
0.0
  9
$PUCSORGLEFT
 10
0.0
 20
0.0
 30
0.0
  9
$PUCSORGRIGHT
 10
0.0
 20
0.0
 30
0.0
  9
$PUCSORGFRONT
 10
0.0
 20
0.0
 30
0.0
  9
$PUCSORGBACK
 10
0.0
 20
0.0
 30
0.0
  9
$USERI1
 70
     0
  9
$USERI2
 70
     0
  9
$USERI3
 70
     0
  9
$USERI4
 70
     0
  9
$USERI5
 70
     0
  9
$USERR1
 40
0.0
  9
$USERR2
 40
0.0
  9
$USERR3
 40
0.0
  9
$USERR4
 40
0.0
  9
$USERR5
 40
0.0
  9
$WORLDVIEW
 70
     1
  9
$SHADEDGE
 70
     3
  9
$SHADEDIF
 70
    70
  9
$TILEMODE
 70
     1
  9
$MAXACTVP
 70
    64
  9
$PINSBASE
 10
0.0
 20
0.0
 30
0.0
  9
$PLIMCHECK
 70
     0
  9
$PEXTMIN
 10
1.000000000000000E+20
 20
1.000000000000000E+20
 30
1.000000000000000E+20
  9
$PEXTMAX
 10
-1.000000000000000E+20
 20
-1.000000000000000E+20
 30
-1.000000000000000E+20
  9
$PLIMMIN
 10
0.0
 20
0.0
  9
$PLIMMAX
 10
12.0
 20
9.0
  9
$UNITMODE
 70
     0
  9
$VISRETAIN
 70
     1
  9
$PLINEGEN
 70
     0
  9
$PSLTSCALE
 70
     1
  9
$TREEDEPTH
 70
  3020
  9
$CMLSTYLE
  2
Standard
  9
$CMLJUST
 70
     0
  9
$CMLSCALE
 40
1.0
  9
$PROXYGRAPHICS
 70
     1
  9
$MEASUREMENT
 70
     0
  9
$CELWEIGHT
370
    -1
  9
$ENDCAPS
280
     0
  9
$JOINSTYLE
280
     0
  9
$LWDISPLAY
290
     1
  9
$INSUNITS
 70
     0
  9
$HYPERLINKBASE
  1

  9
$STYLESHEET
  1

  9
$XEDIT
290
     1
  9
$CEPSNTYPE
380
     0
  9
$PSTYLEMODE
290
     1
  9
$FINGERPRINTGUID
  2
{F83DDA4E-6F93-2C4B-AA3A-8E098A67C7C2}
  9
$VERSIONGUID
  2
{2823EA72-0F10-8245-A70D-7CD0F7432347}
  9
$EXTNAMES
290
     1
  9
$PSVPSCALE
 40
0.0
  9
$OLESTARTUP
290
     0
  9
$SORTENTS
280
   127
  9
$INDEXCTL
280
     0
  9
$HIDETEXT
280
     1
  9
$XCLIPFRAME
280
     2
  9
$HALOGAP
280
     0
  9
$OBSCOLOR
 70
   257
  9
$OBSLTYPE
280
     0
  9
$INTERSECTIONDISPLAY
280
     0
  9
$INTERSECTIONCOLOR
 70
   257
  9
$DIMASSOC
280
     2
  9
$PROJECTNAME
  1

  9
$CAMERADISPLAY
290
     0
  9
$LENSLENGTH
 40
50.0
  9
$CAMERAHEIGHT
 40
0.0
  9
$STEPSPERSEC
 40
2.0
  9
$STEPSIZE
 40
6.0
  9
$3DDWFPREC
 40
2.0
  9
$PSOLWIDTH
 40
0.25
  9
$PSOLHEIGHT
 40
4.0
  9
$LOFTANG1
 40
1.570796326794896
  9
$LOFTANG2
 40
1.570796326794896
  9
$LOFTMAG1
 40
0.0
  9
$LOFTMAG2
 40
0.0
  9
$LOFTPARAM
 70
     7
  9
$LOFTNORMALS
280
     1
  9
$LATITUDE
 40
37.795
  9
$LONGITUDE
 40
-122.394
  9
$NORTHDIRECTION
 40
0.0
  9
$TIMEZONE
 70
 -8000
  9
$LIGHTGLYPHDISPLAY
280
     1
  9
$TILEMODELIGHTSYNCH
280
     1
  9
$CMATERIAL
347
11
  9
$SOLIDHIST
280
     0
  9
$SHOWHIST
280
     1
  9
$DWFFRAME
280
     2
  9
$DGNFRAME
280
     0
  9
$REALWORLDSCALE
290
     1
  9
$INTERFERECOLOR
 62
     1
  9
$INTERFEREOBJVS
345
33
  9
$INTERFEREVPVS
346
30
  9
$CSHADOW
280
     0
  9
$SHADOWPLANELOCATION
 40
0.0
  0
ENDSEC
  0
SECTION
  2
CLASSES
  0
CLASS
  1
ACDBDICTIONARYWDFLT
  2
AcDbDictionaryWithDefault
  3
ObjectDBX Classes
 90
        0
 91
        1
280
     0
281
     0
  0
CLASS
  1
MATERIAL
  2
AcDbMaterial
  3
ObjectDBX Classes
 90
     1153
 91
        3
280
     0
281
     0
  0
CLASS
  1
VISUALSTYLE
  2
AcDbVisualStyle
  3
ObjectDBX Classes
 90
     4095
 91
       24
280
     0
281
     0
  0
CLASS
  1
SCALE
  2
AcDbScale
  3
ObjectDBX Classes
 90
     1153
 91
       17
280
     0
281
     0
  0
CLASS
  1
TABLESTYLE
  2
AcDbTableStyle
  3
ObjectDBX Classes
 90
     4095
 91
        1
280
     0
281
     0
  0
CLASS
  1
MLEADERSTYLE
  2
AcDbMLeaderStyle
  3
ACDB_MLEADERSTYLE_CLASS
 90
     4095
 91
        1
280
     0
281
     0
  0
CLASS
  1
ACDBSECTIONVIEWSTYLE
  2
AcDbSectionViewStyle
  3
ObjectDBX Classes
 90
     1025
 91
        1
280
     0
281
     0
  0
CLASS
  1
ACDBDETAILVIEWSTYLE
  2
AcDbDetailViewStyle
  3
ObjectDBX Classes
 90
     1025
 91
        1
280
     0
281
     0
  0
CLASS
  1
DICTIONARYVAR
  2
AcDbDictionaryVar
  3
ObjectDBX Classes
 90
        0
 91
        5
280
     0
281
     0
  0
CLASS
  1
CELLSTYLEMAP
  2
AcDbCellStyleMap
  3
ObjectDBX Classes
 90
     1152
 91
        1
280
     0
281
     0
  0
ENDSEC
  0
SECTION
  2
TABLES
  0
TABLE
  2
VPORT
  5
8
330
0
100
AcDbSymbolTable
 70
     1
  0
VPORT
  5
57
330
8
100
AcDbSymbolTableRecord
100
AcDbViewportTableRecord
  2
*Active
 70
     0
 10
0.0
 20
0.0
 11
1.0
 21
1.0
 12
0.0
 22
0.0
 13
0.0
 23
0.0
 14
1.0
 24
1.0
 15
0.0
 25
0.0
 16
0.0
 26
0.0
 36
1.0
 17
420.9449157714998
 27
-297.6377868652498
 37
0.0
 40
607.1810852051096
 41
1.414285868084602
 42
50.0
 43
0.0
 44
0.0
 50
0.0
 51
0.0
 71
     0
 72
   100
 73
     1
 74
     1
 75
     0
 76
     0
 77
     0
 78
     0
281
     0
 65
     1
110
0.0
120
0.0
130
0.0
111
1.0
121
0.0
131
0.0
112
0.0
122
1.0
132
0.0
 79
     0
146
0.0
 60
     3
 61
     5
292
     1
282
     1
141
0.0
142
0.0
 63
   250
421
  3355443
  0
ENDTAB
  0
TABLE
  2
LTYPE
  5
5
330
0
100
AcDbSymbolTable
 70
     1
  0
LTYPE
  5
5B
330
5
100
AcDbSymbolTableRecord
100
AcDbLinetypeTableRecord
  2
ByBlock
 70
     0
  3

 72
    65
 73
     0
 40
0.0
  0
LTYPE
  5
5C
330
5
100
AcDbSymbolTableRecord
100
AcDbLinetypeTableRecord
  2
ByLayer
 70
     0
  3

 72
    65
 73
     0
 40
0.0
  0
LTYPE
  5
5D
330
5
100
AcDbSymbolTableRecord
100
AcDbLinetypeTableRecord
  2
Continuous
 70
     0
  3
Solid line
 72
    65
 73
     0
 40
0.0
  0
ENDTAB
  0
TABLE
  2
LAYER
  5
2
330
0
100
AcDbSymbolTable
 70
     3
  0
LAYER
  5
54
330
2
100
AcDbSymbolTableRecord
100
AcDbLayerTableRecord
  2
0
 70
     0
 62
     7
  6
Continuous
370
    -3
390
F
347
21
348
0
  0
LAYER
  5
78
330
2
100
AcDbSymbolTableRecord
100
AcDbLayerTableRecord
  2
Layer 1
 70
     0
 62
     7
  6
Continuous
370
     0
390
F
347
21
348
0
  0
LAYER
  5
8B
330
2
100
AcDbSymbolTableRecord
100
AcDbLayerTableRecord
  2
Layer 2
 70
     0
 62
     7
  6
Continuous
370
     0
390
F
347
21
348
0
  0
ENDTAB
  0
TABLE
  2
STYLE
  5
3
330
0
100
AcDbSymbolTable
 70
     2
  0
STYLE
  5
55
330
3
100
AcDbSymbolTableRecord
100
AcDbTextStyleTableRecord
  2
Standard
 70
     0
 40
0.0
 41
1.0
 50
0.0
 71
     0
 42
0.2
  3
txt
  4

  0
STYLE
  5
5A
330
3
100
AcDbSymbolTableRecord
100
AcDbTextStyleTableRecord
  2
Annotative
 70
     0
 40
0.0
 41
1.0
 50
0.0
 71
     0
 42
0.2
  3
txt
  4

1001
AcadAnnotative
1000
AnnotativeData
1002
{
1070
     1
1070
     1
1002
}
  0
ENDTAB
  0
TABLE
  2
VIEW
  5
6
330
0
100
AcDbSymbolTable
 70
     0
  0
ENDTAB
  0
TABLE
  2
UCS
  5
7
330
0
100
AcDbSymbolTable
 70
     0
  0
ENDTAB
  0
TABLE
  2
APPID
  5
9
330
0
100
AcDbSymbolTable
 70
     2
  0
APPID
  5
56
330
9
100
AcDbSymbolTableRecord
100
AcDbRegAppTableRecord
  2
ACAD
 70
     0
  0
APPID
  5
5E
330
9
100
AcDbSymbolTableRecord
100
AcDbRegAppTableRecord
  2
AcadAnnotative
 70
     0
  0
ENDTAB
  0
TABLE
  2
DIMSTYLE
  5
A
330
0
100
AcDbSymbolTable
 70
     2
100
AcDbDimStyleTable
 71
     0
  0
DIMSTYLE
105
58
330
A
100
AcDbSymbolTableRecord
100
AcDbDimStyleTableRecord
  2
Standard
 70
     0
340
55
  0
DIMSTYLE
105
59
330
A
100
AcDbSymbolTableRecord
100
AcDbDimStyleTableRecord
  2
Annotative
 70
     0
340
55
1001
AcadAnnotative
1000
AnnotativeData
1002
{
1070
     1
1070
     1
1002
}
  0
ENDTAB
  0
TABLE
  2
BLOCK_RECORD
  5
1
330
0
100
AcDbSymbolTable
 70
     3
  0
BLOCK_RECORD
  5
70
330
1
100
AcDbSymbolTableRecord
100
AcDbBlockTableRecord
  2
*Model_Space
340
73
 70
     0
280
     1
281
     0
  0
BLOCK_RECORD
  5
6C
330
1
100
AcDbSymbolTableRecord
100
AcDbBlockTableRecord
  2
*Paper_Space
340
6F
 70
     0
280
     1
281
     0
  0
BLOCK_RECORD
  5
74
330
1
100
AcDbSymbolTableRecord
100
AcDbBlockTableRecord
  2
*Paper_Space0
340
77
 70
     0
280
     1
281
     0
  0
BLOCK_RECORD
  5
79
330
1
100
AcDbSymbolTableRecord
100
AcDbBlockTableRecord
  2
Block_0
340
0
102
{BLKREFS
331
7A
102
}
 70
     0
280
     1
281
     0
  0
BLOCK_RECORD
  5
8C
330
1
100
AcDbSymbolTableRecord
100
AcDbBlockTableRecord
  2
Block_1
340
0
102
{BLKREFS
331
8D
102
}
 70
     0
280
     1
281
     0
  0
ENDTAB
  0
ENDSEC
  0
SECTION
  2
BLOCKS
  0
BLOCK
  5
71
330
70
100
AcDbEntity
  8
0
100
AcDbBlockBegin
  2
*Model_Space
 70
     0
 10
0.0
 20
0.0
 30
0.0
  3
*Model_Space
  1

  0
ENDBLK
  5
72
330
70
100
AcDbEntity
  8
0
100
AcDbBlockEnd
  0
BLOCK
  5
6D
330
6C
100
AcDbEntity
 67
     1
  8
0
100
AcDbBlockBegin
  2
*Paper_Space
 70
     0
 10
0.0
 20
0.0
 30
0.0
  3
*Paper_Space
  1

  0
ENDBLK
  5
6E
330
6C
100
AcDbEntity
 67
     1
  8
0
100
AcDbBlockEnd
  0
BLOCK
  5
75
330
74
100
AcDbEntity
 67
     1
  8
0
100
AcDbBlockBegin
  2
*Paper_Space0
 70
     0
 10
0.0
 20
0.0
 30
0.0
  3
*Paper_Space0
  1

  0
ENDBLK
  5
76
330
74
100
AcDbEntity
 67
     1
  8
0
100
AcDbBlockEnd
  0
BLOCK
  5
7B
330
79
100
AcDbEntity
  8
0
100
AcDbBlockBegin
  2
Block_0
 70
     0
 10
0.0
 20
0.0
 30
0.0
  3
Block_0
  1

  0
CIRCLE
  5
7D
330
79
100
AcDbEntity
  8
Layer 1
 62
   250
420
  2301728
370
    35
100
AcDbCircle
 10
128.7712694091351
 20
-181.1874140161096
 30
0.0
 40
10.18077961443043
  0
HATCH
  5
7E
330
79
100
AcDbEntity
  8
Layer 1
 62
   250
420
  2301728
440
 33554687
100
AcDbHatch
 10
0.0
 20
0.0
 30
0.0
210
0.0
220
0.0
230
1.0
  2
SOLID
 70
     1
 71
     1
 91
        1
 92
        1
 93
        1
 72
     2
 10
128.7712694091351
 20
-181.1874140161096
 40
10.18077961443043
 50
0.0
 51
360.0
 73
     1
 97
        1
330
7D
 75
     2
 76
     1
 98
        1
 10
0.0
 20
0.0
450
        0
451
        0
460
0.0
461
0.0
452
        0
462
0.0
453
        0
470

  0
CIRCLE
  5
7F
330
79
100
AcDbEntity
  8
Layer 1
 62
   250
420
  2301728
370
    35
100
AcDbCircle
 10
197.2895322110175
 20
-161.7954528457646
 30
0.0
 40
10.18077961443066
  0
HATCH
  5
80
330
79
100
AcDbEntity
  8
Layer 1
 62
   250
420
  2301728
440
 33554687
100
AcDbHatch
 10
0.0
 20
0.0
 30
0.0
210
0.0
220
0.0
230
1.0
  2
SOLID
 70
     1
 71
     1
 91
        1
 92
        1
 93
        1
 72
     2
 10
197.2895322110175
 20
-161.7954528457646
 40
10.18077961443066
 50
0.0
 51
360.0
 73
     1
 97
        1
330
7F
 75
     2
 76
     1
 98
        1
 10
0.0
 20
0.0
450
        0
451
        0
460
0.0
461
0.0
452
        0
462
0.0
453
        0
470

  0
SPLINE
  5
81
330
79
100
AcDbEntity
  8
Layer 1
 62
   250
420
  2301728
370
    35
100
AcDbSpline
210
0.0
220
0.0
230
1.0
 70
    11
 71
     3
 72
   107
 73
   103
 74
     0
 42
0.0000000001
 43
0.0000000001
 40
0.0
 40
0.0
 40
0.0
 40
0.0
 40
1.0
 40
1.0
 40
1.0
 40
2.0
 40
2.0
 40
2.0
 40
3.0
 40
3.0
 40
3.0
 40
4.0
 40
4.0
 40
4.0
 40
5.0
 40
5.0
 40
5.0
 40
6.0
 40
6.0
 40
6.0
 40
7.0
 40
7.0
 40
7.0
 40
8.0
 40
8.0
 40
8.0
 40
9.0
 40
9.0
 40
9.0
 40
10.0
 40
10.0
 40
10.0
 40
11.0
 40
11.0
 40
11.0
 40
12.0
 40
12.0
 40
12.0
 40
13.0
 40
13.0
 40
13.0
 40
14.0
 40
14.0
 40
14.0
 40
15.0
 40
15.0
 40
15.0
 40
16.0
 40
16.0
 40
16.0
 40
17.0
 40
17.0
 40
17.0
 40
18.0
 40
18.0
 40
18.0
 40
19.0
 40
19.0
 40
19.0
 40
20.0
 40
20.0
 40
20.0
 40
21.0
 40
21.0
 40
21.0
 40
22.0
 40
22.0
 40
22.0
 40
23.0
 40
23.0
 40
23.0
 40
24.0
 40
24.0
 40
24.0
 40
25.0
 40
25.0
 40
25.0
 40
26.0
 40
26.0
 40
26.0
 40
27.0
 40
27.0
 40
27.0
 40
28.0
 40
28.0
 40
28.0
 40
29.0
 40
29.0
 40
29.0
 40
30.0
 40
30.0
 40
30.0
 40
31.0
 40
31.0
 40
31.0
 40
32.0
 40
32.0
 40
32.0
 40
33.0
 40
33.0
 40
33.0
 40
34.0
 40
34.0
 40
34.0
 40
34.0
 10
128.7712771024789
 20
-166.1586456872146
 30
0.0
 10
128.7712771024789
 20
-166.1586456872146
 30
0.0
 10
128.7712771024789
 20
-166.1586456872146
 30
0.0
 10
128.7712771024789
 20
-166.1586456872146
 30
0.0
 10
125.0909732862192
 20
-169.4005914437239
 30
0.0
 10
120.887713032731
 20
-171.1166636208136
 30
0.0
 10
118.5904913728263
 20
-169.7138460645228
 30
0.0
 10
115.3156603188836
 20
-167.7140484907095
 30
0.0
 10
115.9385601985677
 20
-159.3908071499854
 30
0.0
 10
120.2064934631826
 20
-155.4930656626684
 30
0.0
 10
122.6286285956221
 20
-153.2810228331818
 30
0.0
 10
125.6613580054327
 20
-153.0088642804849
 30
0.0
 10
126.9936769138248
 20
-152.9074749825258
 30
0.0
 10
135.593139977821
 20
-152.2530828924628
 30
0.0
 10
138.0057978968152
 20
-159.4401984182741
 30
0.0
 10
147.6784234623464
 20
-160.6642575766436
 30
0.0
 10
148.5770701492611
 20
-160.7779841379852
 30
0.0
 10
154.9898086856137
 20
-161.5034447751968
 30
0.0
 10
161.2528114710094
 20
-158.078656342811
 30
0.0
 10
165.4403256193081
 20
-155.7888011583909
 30
0.0
 10
168.1030637719277
 20
-152.4408013730281
 30
0.0
 10
170.3023894051985
 20
-149.6754813555026
 30
0.0
 10
173.9104004462924
 20
-145.1389355779647
 30
0.0
 10
174.0019009369043
 20
-143.1614590580893
 30
0.0
 10
177.7359652490313
 20
-139.6562937241478
 30
0.0
 10
180.1853289011678
 20
-137.35706686318
 30
0.0
 10
181.9949489846912
 20
-135.658387166889
 30
0.0
 10
184.8463660036486
 20
-135.1315047570533
 30
0.0
 10
190.1701326111379
 20
-134.1477847766173
 30
0.0
 10
196.7556983717404
 20
-137.686743025316
 30
0.0
 10
197.7743405117417
 20
-142.5650911545754
 30
0.0
 10
197.9007315008493
 20
-143.1703347112161
 30
0.0
 10
198.3575374103784
 20
-145.3580723930808
 30
0.0
 10
197.1279270111718
 20
-147.0898801216699
 30
0.0
 10
194.9414768794613
 20
-150.1693307162486
 30
0.0
 10
190.3587270479565
 20
-147.6721588492946
 30
0.0
 10
186.4623469866255
 20
-150.3218737486932
 30
0.0
 10
183.2345431744552
 20
-152.5169251375937
 30
0.0
 10
182.6719470783173
 20
-156.7519519973957
 30
0.0
 10
181.937558019531
 20
-162.2802491133106
 30
0.0
 10
181.2293421114609
 20
-167.6114666258027
 30
0.0
 10
180.6099671641714
 20
-172.2738546005776
 30
0.0
 10
183.5535601098872
 20
-175.2082236214037
 30
0.0
 10
186.2387142996522
 20
-177.8849770740844
 30
0.0
 10
190.388066305617
 20
-177.6278891904285
 30
0.0
 10
192.926334240672
 20
-177.4706181049514
 30
0.0
 10
194.0921370313171
 20
-177.3983886519236
 30
0.0
 10
200.0887857934085
 20
-176.9104704648489
 30
0.0
 10
204.5615239623821
 20
-172.2994367446654
 30
0.0
 10
208.1420531952244
 20
-168.6081993057678
 30
0.0
 10
209.6169102381264
 20
-163.4387276432307
 30
0.0
 10
210.0559015192648
 20
-161.6338567201201
 30
0.0
 10
210.6714560308446
 20
-159.103039690066
 30
0.0
 10
210.606424194264
 20
-157.6121199312811
 30
0.0
 10
211.3487074130262
 20
-157.4322639496204
 30
0.0
 10
212.7699939264767
 20
-157.0878864975857
 30
0.0
 10
216.015063575167
 20
-161.8255117269827
 30
0.0
 10
216.5198887733113
 20
-166.8050380804052
 30
0.0
 10
217.1615531134685
 20
-173.134318037778
 30
0.0
 10
213.2010699402599
 20
-178.1280707650576
 30
0.0
 10
211.6719036096201
 20
-180.056208785094
 30
0.0
 10
210.7114545152053
 20
-181.2672446902443
 30
0.0
 10
208.0579402874773
 20
-184.3872531147435
 30
0.0
 10
197.4511232077657
 20
-189.7522002198529
 30
0.0
 10
189.0080447193049
 20
-194.0227296921603
 30
0.0
 10
182.1957434869255
 20
-196.341924134238
 30
0.0
 10
180.6447732331489
 20
-196.8625798670909
 30
0.0
 10
171.8889678083787
 20
-199.8018246926076
 30
0.0
 10
165.1646421342166
 20
-201.027361367549
 30
0.0
 10
157.6976110937012
 20
-202.3569785313521
 30
0.0
 10
148.4674595269444
 20
-204.0005468594791
 30
0.0
 10
142.4945776742943
 20
-204.3145613459437
 30
0.0
 10
130.5488561837537
 20
-204.9425692114928
 30
0.0
 10
124.2149114954873
 20
-205.2755592322283
 30
0.0
 10
120.7194450024763
 20
-205.2749471182196
 30
0.0
 10
117.2976854790649
 20
-203.0033709245417
 30
0.0
 10
113.1894928633428
 20
-200.2761075124545
 30
0.0
 10
110.6847012323487
 20
-195.2692259950563
 30
0.0
 10
110.8336982250184
 20
-190.7217888096384
 30
0.0
 10
110.8676388914327
 20
-189.6856064371823
 30
0.0
 10
110.9612290126251
 20
-186.8294824725726
 30
0.0
 10
112.4497003153756
 20
-186.1969998425447
 30
0.0
 10
114.2237966790144
 20
-185.4431497797568
 30
0.0
 10
116.110142087422
 20
-188.6425641663518
 30
0.0
 10
120.5296896597783
 20
-190.3985926130444
 30
0.0
 10
123.1578117098361
 20
-191.4428380045137
 30
0.0
 10
125.2675576240408
 20
-191.4147862970094
 30
0.0
 10
128.7712771024789
 20
-191.3682023102101
 30
0.0
 10
136.2435638805173
 20
-191.2688498743846
 30
0.0
 10
141.6062524960089
 20
-188.7670343839145
 30
0.0
 10
143.4768306918468
 20
-187.813001932901
 30
0.0
 10
147.1084819981042
 20
-185.9607871573244
 30
0.0
 10
149.9334092556501
 20
-184.5200396398731
 30
0.0
 10
150.5872314464641
 20
-181.6722108754502
 30
0.0
 10
151.1539856963845
 20
-179.2036606152478
 30
0.0
 10
149.792707463167
 20
-176.9701832417668
 30
0.0
 10
148.3248369629164
 20
-174.5618312282131
 30
0.0
 10
147.1601739707703
 20
-172.6509590446985
 30
0.0
 10
144.8549103992345
 20
-169.5130304549093
 30
0.0
 10
140.5680438151085
 20
-166.8050380804052
 30
0.0
 10
140.5680438151085
 20
-166.8050380804052
 30
0.0
 10
128.7712771024789
 20
-166.1586456872146
 30
0.0
 10
128.7712771024789
 20
-166.1586456872146
 30
0.0
  0
HATCH
  5
82
330
79
100
AcDbEntity
  8
Layer 1
 62
   250
420
  2301728
440
 33554687
100
AcDbHatch
 10
0.0
 20
0.0
 30
0.0
210
0.0
220
0.0
230
1.0
  2
SOLID
 70
     1
 71
     1
 91
        1
 92
        1
 93
        1
 72
     4
 94
        3
 73
     0
 74
     0
 95
      107
 96
      103
 40
0.0
 40
0.0
 40
0.0
 40
0.0
 40
1.0
 40
1.0
 40
1.0
 40
2.0
 40
2.0
 40
2.0
 40
3.0
 40
3.0
 40
3.0
 40
4.0
 40
4.0
 40
4.0
 40
5.0
 40
5.0
 40
5.0
 40
6.0
 40
6.0
 40
6.0
 40
7.0
 40
7.0
 40
7.0
 40
8.0
 40
8.0
 40
8.0
 40
9.0
 40
9.0
 40
9.0
 40
10.0
 40
10.0
 40
10.0
 40
11.0
 40
11.0
 40
11.0
 40
12.0
 40
12.0
 40
12.0
 40
13.0
 40
13.0
 40
13.0
 40
14.0
 40
14.0
 40
14.0
 40
15.0
 40
15.0
 40
15.0
 40
16.0
 40
16.0
 40
16.0
 40
17.0
 40
17.0
 40
17.0
 40
18.0
 40
18.0
 40
18.0
 40
19.0
 40
19.0
 40
19.0
 40
20.0
 40
20.0
 40
20.0
 40
21.0
 40
21.0
 40
21.0
 40
22.0
 40
22.0
 40
22.0
 40
23.0
 40
23.0
 40
23.0
 40
24.0
 40
24.0
 40
24.0
 40
25.0
 40
25.0
 40
25.0
 40
26.0
 40
26.0
 40
26.0
 40
27.0
 40
27.0
 40
27.0
 40
28.0
 40
28.0
 40
28.0
 40
29.0
 40
29.0
 40
29.0
 40
30.0
 40
30.0
 40
30.0
 40
31.0
 40
31.0
 40
31.0
 40
32.0
 40
32.0
 40
32.0
 40
33.0
 40
33.0
 40
33.0
 40
34.0
 40
34.0
 40
34.0
 40
34.0
 10
128.7712771024789
 20
-166.1586456872146
 10
128.7712771024789
 20
-166.1586456872146
 10
128.7712771024789
 20
-166.1586456872146
 10
128.7712771024789
 20
-166.1586456872146
 10
125.0909732862192
 20
-169.4005914437239
 10
120.887713032731
 20
-171.1166636208136
 10
118.5904913728263
 20
-169.7138460645228
 10
115.3156603188836
 20
-167.7140484907095
 10
115.9385601985677
 20
-159.3908071499854
 10
120.2064934631826
 20
-155.4930656626684
 10
122.6286285956221
 20
-153.2810228331818
 10
125.6613580054327
 20
-153.0088642804849
 10
126.9936769138248
 20
-152.9074749825258
 10
135.593139977821
 20
-152.2530828924628
 10
138.0057978968152
 20
-159.4401984182741
 10
147.6784234623464
 20
-160.6642575766436
 10
148.5770701492611
 20
-160.7779841379852
 10
154.9898086856137
 20
-161.5034447751968
 10
161.2528114710094
 20
-158.078656342811
 10
165.4403256193081
 20
-155.7888011583909
 10
168.1030637719277
 20
-152.4408013730281
 10
170.3023894051985
 20
-149.6754813555026
 10
173.9104004462924
 20
-145.1389355779647
 10
174.0019009369043
 20
-143.1614590580893
 10
177.7359652490313
 20
-139.6562937241478
 10
180.1853289011678
 20
-137.35706686318
 10
181.9949489846912
 20
-135.658387166889
 10
184.8463660036486
 20
-135.1315047570533
 10
190.1701326111379
 20
-134.1477847766173
 10
196.7556983717404
 20
-137.686743025316
 10
197.7743405117417
 20
-142.5650911545754
 10
197.9007315008493
 20
-143.1703347112161
 10
198.3575374103784
 20
-145.3580723930808
 10
197.1279270111718
 20
-147.0898801216699
 10
194.9414768794613
 20
-150.1693307162486
 10
190.3587270479565
 20
-147.6721588492946
 10
186.4623469866255
 20
-150.3218737486932
 10
183.2345431744552
 20
-152.5169251375937
 10
182.6719470783173
 20
-156.7519519973957
 10
181.937558019531
 20
-162.2802491133106
 10
181.2293421114609
 20
-167.6114666258027
 10
180.6099671641714
 20
-172.2738546005776
 10
183.5535601098872
 20
-175.2082236214037
 10
186.2387142996522
 20
-177.8849770740844
 10
190.388066305617
 20
-177.6278891904285
 10
192.926334240672
 20
-177.4706181049514
 10
194.0921370313171
 20
-177.3983886519236
 10
200.0887857934085
 20
-176.9104704648489
 10
204.5615239623821
 20
-172.2994367446654
 10
208.1420531952244
 20
-168.6081993057678
 10
209.6169102381264
 20
-163.4387276432307
 10
210.0559015192648
 20
-161.6338567201201
 10
210.6714560308446
 20
-159.103039690066
 10
210.606424194264
 20
-157.6121199312811
 10
211.3487074130262
 20
-157.4322639496204
 10
212.7699939264767
 20
-157.0878864975857
 10
216.015063575167
 20
-161.8255117269827
 10
216.5198887733113
 20
-166.8050380804052
 10
217.1615531134685
 20
-173.134318037778
 10
213.2010699402599
 20
-178.1280707650576
 10
211.6719036096201
 20
-180.056208785094
 10
210.7114545152053
 20
-181.2672446902443
 10
208.0579402874773
 20
-184.3872531147435
 10
197.4511232077657
 20
-189.7522002198529
 10
189.0080447193049
 20
-194.0227296921603
 10
182.1957434869255
 20
-196.341924134238
 10
180.6447732331489
 20
-196.8625798670909
 10
171.8889678083787
 20
-199.8018246926076
 10
165.1646421342166
 20
-201.027361367549
 10
157.6976110937012
 20
-202.3569785313521
 10
148.4674595269444
 20
-204.0005468594791
 10
142.4945776742943
 20
-204.3145613459437
 10
130.5488561837537
 20
-204.9425692114928
 10
124.2149114954873
 20
-205.2755592322283
 10
120.7194450024763
 20
-205.2749471182196
 10
117.2976854790649
 20
-203.0033709245417
 10
113.1894928633428
 20
-200.2761075124545
 10
110.6847012323487
 20
-195.2692259950563
 10
110.8336982250184
 20
-190.7217888096384
 10
110.8676388914327
 20
-189.6856064371823
 10
110.9612290126251
 20
-186.8294824725726
 10
112.4497003153756
 20
-186.1969998425447
 10
114.2237966790144
 20
-185.4431497797568
 10
116.110142087422
 20
-188.6425641663518
 10
120.5296896597783
 20
-190.3985926130444
 10
123.1578117098361
 20
-191.4428380045137
 10
125.2675576240408
 20
-191.4147862970094
 10
128.7712771024789
 20
-191.3682023102101
 10
136.2435638805173
 20
-191.2688498743846
 10
141.6062524960089
 20
-188.7670343839145
 10
143.4768306918468
 20
-187.813001932901
 10
147.1084819981042
 20
-185.9607871573244
 10
149.9334092556501
 20
-184.5200396398731
 10
150.5872314464641
 20
-181.6722108754502
 10
151.1539856963845
 20
-179.2036606152478
 10
149.792707463167
 20
-176.9701832417668
 10
148.3248369629164
 20
-174.5618312282131
 10
147.1601739707703
 20
-172.6509590446985
 10
144.8549103992345
 20
-169.5130304549093
 10
140.5680438151085
 20
-166.8050380804052
 10
140.5680438151085
 20
-166.8050380804052
 10
128.7712771024789
 20
-166.1586456872146
 10
128.7712771024789
 20
-166.1586456872146
 97
        0
 97
        1
330
81
 75
     2
 76
     1
 98
        1
 10
0.0
 20
0.0
450
        0
451
        0
460
0.0
461
0.0
452
        0
462
0.0
453
        0
470

  0
SPLINE
  5
83
330
79
100
AcDbEntity
  8
Layer 1
 62
   250
420
  2301728
370
    35
100
AcDbSpline
210
0.0
220
0.0
230
1.0
 70
     9
 71
     3
 72
   104
 73
   100
 74
     0
 42
0.0000000001
 43
0.0000000001
 40
0.0
 40
0.0
 40
0.0
 40
0.0
 40
1.0
 40
1.0
 40
1.0
 40
2.0
 40
2.0
 40
2.0
 40
3.0
 40
3.0
 40
3.0
 40
4.0
 40
4.0
 40
4.0
 40
5.0
 40
5.0
 40
5.0
 40
6.0
 40
6.0
 40
6.0
 40
7.0
 40
7.0
 40
7.0
 40
8.0
 40
8.0
 40
8.0
 40
9.0
 40
9.0
 40
9.0
 40
10.0
 40
10.0
 40
10.0
 40
11.0
 40
11.0
 40
11.0
 40
12.0
 40
12.0
 40
12.0
 40
13.0
 40
13.0
 40
13.0
 40
14.0
 40
14.0
 40
14.0
 40
15.0
 40
15.0
 40
15.0
 40
16.0
 40
16.0
 40
16.0
 40
17.0
 40
17.0
 40
17.0
 40
18.0
 40
18.0
 40
18.0
 40
19.0
 40
19.0
 40
19.0
 40
20.0
 40
20.0
 40
20.0
 40
21.0
 40
21.0
 40
21.0
 40
22.0
 40
22.0
 40
22.0
 40
23.0
 40
23.0
 40
23.0
 40
24.0
 40
24.0
 40
24.0
 40
25.0
 40
25.0
 40
25.0
 40
26.0
 40
26.0
 40
26.0
 40
27.0
 40
27.0
 40
27.0
 40
28.0
 40
28.0
 40
28.0
 40
29.0
 40
29.0
 40
29.0
 40
30.0
 40
30.0
 40
30.0
 40
31.0
 40
31.0
 40
31.0
 40
32.0
 40
32.0
 40
32.0
 40
33.0
 40
33.0
 40
33.0
 40
33.0
 10
94.51212143791508
 20
-110.2451548843428
 30
0.0
 10
94.78780492300757
 20
-111.8912772054036
 30
0.0
 10
95.36080695729197
 20
-114.7210380528804
 30
0.0
 10
97.25933132373484
 20
-115.416346798318
 30
0.0
 10
98.71669034893967
 20
-115.9500891065281
 30
0.0
 10
100.7129418829781
 20
-115.1374022230757
 30
0.0
 10
101.7841202908293
 20
-113.8003447079618
 30
0.0
 10
103.3442933621163
 20
-111.8529250966512
 30
0.0
 10
102.3942713132292
 20
-109.4768779275919
 30
0.0
 10
101.4609240942345
 20
-103.1347752371057
 30
0.0
 10
100.5736120701695
 20
-97.10548391244628
 30
0.0
 10
100.1501136056649
 20
-94.04548376817912
 30
0.0
 10
101.1377278976388
 20
-91.8227922656797
 30
0.0
 10
102.6139147054555
 20
-88.50050126868245
 30
0.0
 10
106.2240786992697
 20
-86.04163929572132
 30
0.0
 10
109.864109635233
 20
-85.68200120822803
 30
0.0
 10
111.2365747796439
 20
-85.54639684792073
 30
0.0
 10
114.9449303034052
 20
-85.478874340547
 30
0.0
 10
120.5296896597783
 20
-90.52999692560751
 30
0.0
 10
129.0900618567357
 20
-98.27242650159043
 30
0.0
 10
126.4998908752177
 20
-103.9687383592045
 30
0.0
 10
133.7808603644671
 20
-114.1235514582467
 30
0.0
 10
139.4149898817486
 20
-121.9814911691474
 30
0.0
 10
143.189896973422
 20
-121.6723419336831
 30
0.0
 10
149.6176217492984
 20
-131.8995111300301
 30
0.0
 10
152.2350001431341
 20
-136.0640287882433
 30
0.0
 10
154.3758372275051
 20
-140.5175064733239
 30
0.0
 10
152.8496259300109
 20
-144.5042894415273
 30
0.0
 10
152.0401368145703
 20
-146.6188056235241
 30
0.0
 10
150.4107737529202
 20
-148.0491155417576
 30
0.0
 10
149.2944255527027
 20
-149.0290784086219
 30
0.0
 10
148.3617537698555
 20
-149.8477914489531
 30
0.0
 10
144.3210203393673
 20
-153.3948760388011
 30
0.0
 10
140.5680438151085
 20
-152.9074749825258
 30
0.0
 10
136.8401217504479
 20
-152.4233244627112
 30
0.0
 10
134.8150586432402
 20
-148.1426528945012
 30
0.0
 10
131.8416620775151
 20
-142.2418949579805
 30
0.0
 10
124.7791117524748
 20
-128.2261621953521
 30
0.0
 10
124.3474025173018
 20
-121.5171710324766
 30
0.0
 10
120.5296896597783
 20
-120.910734908889
 30
0.0
 10
118.7478679952019
 20
-120.6276955020021
 30
0.0
 10
116.5407537388546
 20
-122.5535117102809
 30
0.0
 10
112.1265041187798
 20
-126.4051230194591
 30
0.0
 10
105.1770049189335
 20
-132.4688510339529
 30
0.0
 10
105.0247996045627
 20
-134.8650663042299
 30
0.0
 10
101.1377278976388
 20
-136.4243000971246
 30
0.0
 10
96.83230792683572
 20
-138.1513375579215
 30
0.0
 10
90.78626789645568
 20
-137.7117552701547
 30
0.0
 10
87.56336099635518
 20
-134.4851123638627
 30
0.0
 10
84.57379617784772
 20
-131.4920753814094
 30
0.0
 10
85.36703261098864
 20
-127.4561122187133
 30
0.0
 10
85.30096651280747
 20
-119.6179395688177
 30
0.0
 10
85.17736169780892
 20
-104.9512974337613
 30
0.0
 10
85.11285754571963
 20
-97.29854256005365
 30
0.0
 10
81.09937374230867
 20
-93.76199055263077
 30
0.0
 10
73.13053585893431
 20
-86.74011414810047
 30
0.0
 10
55.7385932980942
 20
-101.3599506688706
 30
0.0
 10
47.4866315783147
 20
-93.76199055263077
 30
0.0
 10
44.07842299261301
 20
-90.62390365749525
 30
0.0
 10
43.18033565125733
 20
-84.5714258763337
 30
0.0
 10
45.22423709476697
 20
-82.12681138460993
 30
0.0
 10
46.55624994615481
 20
-80.53365803268116
 30
0.0
 10
48.80527290471855
 20
-80.87048959650473
 30
0.0
 10
58.47540779945575
 20
-81.15721224113348
 30
0.0
 10
69.74187270675248
 20
-81.49126818453806
 30
0.0
 10
71.23057619067822
 20
-81.16870520933117
 30
0.0
 10
71.72657850414452
 20
-80.18761309765796
 30
0.0
 10
73.02848167851789
 20
-77.61250223149182
 30
0.0
 10
66.96289621461801
 20
-71.54610413347746
 30
0.0
 10
62.67700056995545
 20
-67.25964386640953
 30
0.0
 10
57.56724168433629
 20
-62.14920426779826
 30
0.0
 10
54.45480025542656
 20
-60.41611426589771
 30
0.0
 10
54.59702177924191
 20
-57.24046151189941
 30
0.0
 10
54.70019465077803
 20
-54.93672294853968
 30
0.0
 10
56.4955672530641
 20
-52.33368174230418
 30
0.0
 10
58.7986145497407
 20
-51.74607340132843
 30
0.0
 10
61.65840064471376
 20
-51.01641239557466
 30
0.0
 10
63.99231748407055
 20
-53.72827797423724
 30
0.0
 10
72.69618820131018
 20
-60.79565661236301
 30
0.0
 10
80.71429070869545
 20
-67.30621202267503
 30
0.0
 10
82.03747012171607
 20
-67.68745879004382
 30
0.0
 10
82.71535472528558
 20
-67.25964386640953
 30
0.0
 10
85.07326010156976
 20
-65.77157888071633
 30
0.0
 10
78.09456939572283
 20
-55.46043397459015
 30
0.0
 10
82.39215852868984
 20
-47.54448063082963
 30
0.0
 10
83.03827652594554
 20
-46.35435686202799
 30
0.0
 10
84.47729323826843
 20
-44.00217158561827
 30
0.0
 10
87.24014369238011
 20
-42.69649019029475
 30
0.0
 10
90.86658147587423
 20
-40.98268705651299
 30
0.0
 10
96.06452699350484
 20
-41.36630840408815
 30
0.0
 10
97.90572371692542
 20
-43.98929080721063
 30
0.0
 10
99.88238760268632
 20
-46.80524742842226
 30
0.0
 10
96.92009351863545
 20
-50.67767061389623
 30
0.0
 10
94.99693684018803
 20
-57.24046151189941
 30
0.0
 10
92.8714870355534
 20
-64.49360092113238
 30
0.0
 10
94.99968079953669
 20
-64.84871675254362
 30
0.0
 10
94.35054444699654
 20
-79.21801395418151
 30
0.0
 10
94.02954341788063
 20
-86.32371831683485
 30
0.0
 10
92.86802542529676
 20
-100.4283659160728
 30
0.0
 10
94.51212143791508
 20
-110.2451548843428
 30
0.0
  0
HATCH
  5
84
330
79
100
AcDbEntity
  8
Layer 1
 62
   250
420
  2301728
440
 33554687
100
AcDbHatch
 10
0.0
 20
0.0
 30
0.0
210
0.0
220
0.0
230
1.0
  2
SOLID
 70
     1
 71
     1
 91
        1
 92
        1
 93
        1
 72
     4
 94
        3
 73
     0
 74
     0
 95
      104
 96
      100
 40
0.0
 40
0.0
 40
0.0
 40
0.0
 40
1.0
 40
1.0
 40
1.0
 40
2.0
 40
2.0
 40
2.0
 40
3.0
 40
3.0
 40
3.0
 40
4.0
 40
4.0
 40
4.0
 40
5.0
 40
5.0
 40
5.0
 40
6.0
 40
6.0
 40
6.0
 40
7.0
 40
7.0
 40
7.0
 40
8.0
 40
8.0
 40
8.0
 40
9.0
 40
9.0
 40
9.0
 40
10.0
 40
10.0
 40
10.0
 40
11.0
 40
11.0
 40
11.0
 40
12.0
 40
12.0
 40
12.0
 40
13.0
 40
13.0
 40
13.0
 40
14.0
 40
14.0
 40
14.0
 40
15.0
 40
15.0
 40
15.0
 40
16.0
 40
16.0
 40
16.0
 40
17.0
 40
17.0
 40
17.0
 40
18.0
 40
18.0
 40
18.0
 40
19.0
 40
19.0
 40
19.0
 40
20.0
 40
20.0
 40
20.0
 40
21.0
 40
21.0
 40
21.0
 40
22.0
 40
22.0
 40
22.0
 40
23.0
 40
23.0
 40
23.0
 40
24.0
 40
24.0
 40
24.0
 40
25.0
 40
25.0
 40
25.0
 40
26.0
 40
26.0
 40
26.0
 40
27.0
 40
27.0
 40
27.0
 40
28.0
 40
28.0
 40
28.0
 40
29.0
 40
29.0
 40
29.0
 40
30.0
 40
30.0
 40
30.0
 40
31.0
 40
31.0
 40
31.0
 40
32.0
 40
32.0
 40
32.0
 40
33.0
 40
33.0
 40
33.0
 40
33.0
 10
94.51212143791508
 20
-110.2451548843428
 10
94.78780492300757
 20
-111.8912772054036
 10
95.36080695729197
 20
-114.7210380528804
 10
97.25933132373484
 20
-115.416346798318
 10
98.71669034893967
 20
-115.9500891065281
 10
100.7129418829781
 20
-115.1374022230757
 10
101.7841202908293
 20
-113.8003447079618
 10
103.3442933621163
 20
-111.8529250966512
 10
102.3942713132292
 20
-109.4768779275919
 10
101.4609240942345
 20
-103.1347752371057
 10
100.5736120701695
 20
-97.10548391244628
 10
100.1501136056649
 20
-94.04548376817912
 10
101.1377278976388
 20
-91.8227922656797
 10
102.6139147054555
 20
-88.50050126868245
 10
106.2240786992697
 20
-86.04163929572132
 10
109.864109635233
 20
-85.68200120822803
 10
111.2365747796439
 20
-85.54639684792073
 10
114.9449303034052
 20
-85.478874340547
 10
120.5296896597783
 20
-90.52999692560751
 10
129.0900618567357
 20
-98.27242650159043
 10
126.4998908752177
 20
-103.9687383592045
 10
133.7808603644671
 20
-114.1235514582467
 10
139.4149898817486
 20
-121.9814911691474
 10
143.189896973422
 20
-121.6723419336831
 10
149.6176217492984
 20
-131.8995111300301
 10
152.2350001431341
 20
-136.0640287882433
 10
154.3758372275051
 20
-140.5175064733239
 10
152.8496259300109
 20
-144.5042894415273
 10
152.0401368145703
 20
-146.6188056235241
 10
150.4107737529202
 20
-148.0491155417576
 10
149.2944255527027
 20
-149.0290784086219
 10
148.3617537698555
 20
-149.8477914489531
 10
144.3210203393673
 20
-153.3948760388011
 10
140.5680438151085
 20
-152.9074749825258
 10
136.8401217504479
 20
-152.4233244627112
 10
134.8150586432402
 20
-148.1426528945012
 10
131.8416620775151
 20
-142.2418949579805
 10
124.7791117524748
 20
-128.2261621953521
 10
124.3474025173018
 20
-121.5171710324766
 10
120.5296896597783
 20
-120.910734908889
 10
118.7478679952019
 20
-120.6276955020021
 10
116.5407537388546
 20
-122.5535117102809
 10
112.1265041187798
 20
-126.4051230194591
 10
105.1770049189335
 20
-132.4688510339529
 10
105.0247996045627
 20
-134.8650663042299
 10
101.1377278976388
 20
-136.4243000971246
 10
96.83230792683572
 20
-138.1513375579215
 10
90.78626789645568
 20
-137.7117552701547
 10
87.56336099635518
 20
-134.4851123638627
 10
84.57379617784772
 20
-131.4920753814094
 10
85.36703261098864
 20
-127.4561122187133
 10
85.30096651280747
 20
-119.6179395688177
 10
85.17736169780892
 20
-104.9512974337613
 10
85.11285754571963
 20
-97.29854256005365
 10
81.09937374230867
 20
-93.76199055263077
 10
73.13053585893431
 20
-86.74011414810047
 10
55.7385932980942
 20
-101.3599506688706
 10
47.4866315783147
 20
-93.76199055263077
 10
44.07842299261301
 20
-90.62390365749525
 10
43.18033565125733
 20
-84.5714258763337
 10
45.22423709476697
 20
-82.12681138460993
 10
46.55624994615481
 20
-80.53365803268116
 10
48.80527290471855
 20
-80.87048959650473
 10
58.47540779945575
 20
-81.15721224113348
 10
69.74187270675248
 20
-81.49126818453806
 10
71.23057619067822
 20
-81.16870520933117
 10
71.72657850414452
 20
-80.18761309765796
 10
73.02848167851789
 20
-77.61250223149182
 10
66.96289621461801
 20
-71.54610413347746
 10
62.67700056995545
 20
-67.25964386640953
 10
57.56724168433629
 20
-62.14920426779826
 10
54.45480025542656
 20
-60.41611426589771
 10
54.59702177924191
 20
-57.24046151189941
 10
54.70019465077803
 20
-54.93672294853968
 10
56.4955672530641
 20
-52.33368174230418
 10
58.7986145497407
 20
-51.74607340132843
 10
61.65840064471376
 20
-51.01641239557466
 10
63.99231748407055
 20
-53.72827797423724
 10
72.69618820131018
 20
-60.79565661236301
 10
80.71429070869545
 20
-67.30621202267503
 10
82.03747012171607
 20
-67.68745879004382
 10
82.71535472528558
 20
-67.25964386640953
 10
85.07326010156976
 20
-65.77157888071633
 10
78.09456939572283
 20
-55.46043397459015
 10
82.39215852868984
 20
-47.54448063082963
 10
83.03827652594554
 20
-46.35435686202799
 10
84.47729323826843
 20
-44.00217158561827
 10
87.24014369238011
 20
-42.69649019029475
 10
90.86658147587423
 20
-40.98268705651299
 10
96.06452699350484
 20
-41.36630840408815
 10
97.90572371692542
 20
-43.98929080721063
 10
99.88238760268632
 20
-46.80524742842226
 10
96.92009351863545
 20
-50.67767061389623
 10
94.99693684018803
 20
-57.24046151189941
 10
92.8714870355534
 20
-64.49360092113238
 10
94.99968079953669
 20
-64.84871675254362
 10
94.35054444699654
 20
-79.21801395418151
 10
94.02954341788063
 20
-86.32371831683485
 10
92.86802542529676
 20
-100.4283659160728
 10
94.51212143791508
 20
-110.2451548843428
 97
        0
 97
        1
330
83
 75
     2
 76
     1
 98
        1
 10
0.0
 20
0.0
450
        0
451
        0
460
0.0
461
0.0
452
        0
462
0.0
453
        0
470

  0
SPLINE
  5
85
330
79
100
AcDbEntity
  8
Layer 1
 62
   250
420
  2301728
370
    35
100
AcDbSpline
210
0.0
220
0.0
230
1.0
 70
     9
 71
     3
 72
   104
 73
   100
 74
     0
 42
0.0000000001
 43
0.0000000001
 40
0.0
 40
0.0
 40
0.0
 40
0.0
 40
1.0
 40
1.0
 40
1.0
 40
2.0
 40
2.0
 40
2.0
 40
3.0
 40
3.0
 40
3.0
 40
4.0
 40
4.0
 40
4.0
 40
5.0
 40
5.0
 40
5.0
 40
6.0
 40
6.0
 40
6.0
 40
7.0
 40
7.0
 40
7.0
 40
8.0
 40
8.0
 40
8.0
 40
9.0
 40
9.0
 40
9.0
 40
10.0
 40
10.0
 40
10.0
 40
11.0
 40
11.0
 40
11.0
 40
12.0
 40
12.0
 40
12.0
 40
13.0
 40
13.0
 40
13.0
 40
14.0
 40
14.0
 40
14.0
 40
15.0
 40
15.0
 40
15.0
 40
16.0
 40
16.0
 40
16.0
 40
17.0
 40
17.0
 40
17.0
 40
18.0
 40
18.0
 40
18.0
 40
19.0
 40
19.0
 40
19.0
 40
20.0
 40
20.0
 40
20.0
 40
21.0
 40
21.0
 40
21.0
 40
22.0
 40
22.0
 40
22.0
 40
23.0
 40
23.0
 40
23.0
 40
24.0
 40
24.0
 40
24.0
 40
25.0
 40
25.0
 40
25.0
 40
26.0
 40
26.0
 40
26.0
 40
27.0
 40
27.0
 40
27.0
 40
28.0
 40
28.0
 40
28.0
 40
29.0
 40
29.0
 40
29.0
 40
30.0
 40
30.0
 40
30.0
 40
31.0
 40
31.0
 40
31.0
 40
32.0
 40
32.0
 40
32.0
 40
33.0
 40
33.0
 40
33.0
 40
33.0
 10
250.4627712189158
 20
-109.5834120855297
 30
0.0
 10
249.1207012459545
 20
-108.5911579509857
 30
0.0
 10
246.7423601895371
 20
-106.9542793346663
 30
0.0
 10
244.8938945089885
 20
-107.7734396665291
 30
0.0
 10
243.4749588563045
 20
-108.402246308874
 30
0.0
 10
242.6040462447509
 20
-110.3737917384105
 30
0.0
 10
242.7627624988181
 20
-112.0796507979066
 30
0.0
 10
242.9939282481119
 20
-114.5642323625243
 30
0.0
 10
245.3281404062309
 20
-115.6128484237488
 30
0.0
 10
250.4061825571571
 20
-119.5252506885081
 30
0.0
 10
255.233760758365
 20
-123.244681453677
 30
0.0
 10
257.6645681575737
 20
-125.1510201487435
 30
0.0
 10
258.498764350561
 20
-127.435720614143
 30
0.0
 10
259.7456612282313
 20
-130.8506866662082
 30
0.0
 10
258.8579471694957
 20
-135.1275137628108
 30
0.0
 10
256.4901042330548
 20
-137.915431372261
 30
0.0
 10
255.597317140122
 20
-138.9666118143623
 30
0.0
 10
252.9773612849604
 20
-141.5919291850068
 30
0.0
 10
245.451283537981
 20
-141.8399819704555
 30
0.0
 10
233.9152255526624
 20
-142.2201846122034
 30
0.0
 10
231.819860215559
 20
-136.3238808041596
 30
0.0
 10
219.5276385874913
 20
-134.0802156717618
 30
0.0
 10
210.0157335681015
 20
-132.344043209202
 30
0.0
 10
207.515811794301
 20
-135.1893705937791
 30
0.0
 10
195.78692665173
 20
-132.300791552535
 30
0.0
 10
191.0109082672261
 20
-131.1245579987881
 30
0.0
 10
186.3768114052618
 20
-129.4093923545206
 30
0.0
 10
184.7041661788762
 20
-125.4817954675172
 30
0.0
 10
183.8170366198974
 20
-123.3986602204604
 30
0.0
 10
183.9949437627574
 20
-121.2378826989688
 30
0.0
 10
184.1168394306105
 20
-119.7574429093374
 30
0.0
 10
184.218688470878
 20
-118.5205943050514
 30
0.0
 10
184.6598940186149
 20
-113.1619868918851
 30
0.0
 10
187.6975289545898
 20
-110.9047393252595
 30
0.0
 10
190.7148872656253
 20
-108.6625632686473
 30
0.0
 10
195.1456502739693
 20
-110.3339007052427
 30
0.0
 10
201.3841301867415
 20
-112.511376248257
 30
0.0
 10
216.2020429538261
 20
-117.6834013056368
 30
0.0
 10
221.1742639790809
 20
-122.2082165906267
 30
0.0
 10
224.3411659845206
 20
-119.9915912450997
 30
0.0
 10
225.8192384101112
 20
-118.9570374016912
 30
0.0
 10
226.0683333501092
 20
-116.0384635856799
 30
0.0
 10
226.5665530760434
 20
-110.2013164665804
 30
0.0
 10
227.3509106738966
 20
-101.0116962502106
 30
0.0
 10
225.7953544893771
 20
-99.18269131964279
 30
0.0
 10
227.5073159564654
 20
-95.36042439922949
 30
0.0
 10
229.4035350007125
 20
-91.12679087089782
 30
0.0
 10
234.0570058535905
 20
-87.24181446709463
 30
0.0
 10
238.6168075396436
 20
-87.32282011693133
 30
0.0
 10
242.8464790790786
 20
-87.39796564818698
 30
0.0
 10
245.0804181398908
 20
-90.85162153175316
 30
0.0
 10
250.5742999561316
 20
-96.44255864533716
 30
0.0
 10
260.8543368022129
 20
-106.904227351205
 30
0.0
 10
266.2182574219059
 20
-112.3629060858729
 30
0.0
 10
271.5619456169315
 20
-112.1174497439524
 30
0.0
 10
282.1719222483716
 20
-111.6300881407114
 30
0.0
 10
284.5207621289428
 20
-89.03136611602532
 30
0.0
 10
295.7346409791608
 20
-88.76156751467261
 30
0.0
 10
300.3661695542942
 20
-88.65013061417085
 30
0.0
 10
305.2176080108129
 20
-92.37874873175497
 30
0.0
 10
305.4463760530871
 20
-95.5570089959192
 30
0.0
 10
305.5954612173136
 20
-97.6282814195347
 30
0.0
 10
303.7440221150773
 20
-98.94878625528782
 30
0.0
 10
296.5904883727417
 20
-105.4619017735795
 30
0.0
 10
288.2560599015778
 20
-113.0501905753926
 30
0.0
 10
287.4095882628662
 20
-114.3165912627273
 30
0.0
 10
287.7346006923999
 20
-115.3667945512407
 30
0.0
 10
288.5876544882594
 20
-118.1233226337845
 30
0.0
 10
297.1649858984402
 20
-118.2713050089978
 30
0.0
 10
303.2256550921939
 20
-118.3758613191385
 30
0.0
 10
310.4513515003164
 20
-118.5005215688534
 30
0.0
 10
313.89391336886
 20
-117.5841917241296
 30
0.0
 10
315.9982431438366
 20
-119.9667939934888
 30
0.0
 10
317.5248035157693
 20
-121.6952237550267
 30
0.0
 10
318.0423848778955
 20
-124.8147262531802
 30
0.0
 10
316.7944429725921
 20
-126.8375834933495
 30
0.0
 10
315.2448264223258
 20
-129.3494493813796
 30
0.0
 10
311.6820384399852
 20
-129.0209307020795
 30
0.0
 10
300.5118436183275
 20
-129.9863083086866
 30
0.0
 10
290.2217306303119
 20
-130.8756194260759
 30
0.0
 10
289.0052524489129
 20
-131.5208586769367
 30
0.0
 10
288.8150179536333
 20
-132.2995524430907
 30
0.0
 10
288.1533088407614
 20
-135.0080937876337
 30
0.0
 10
300.3367733298601
 20
-137.5742243934155
 30
0.0
 10
302.7465666377338
 20
-146.253192414425
 30
0.0
 10
303.1088690350571
 20
-147.5580295783411
 30
0.0
 10
303.7084169562277
 20
-150.2495137345513
 30
0.0
 10
302.6287608756993
 20
-153.1082703323854
 30
0.0
 10
301.2116378275041
 20
-156.8605942050253
 30
0.0
 10
297.206961033653
 20
-160.1965148754525
 30
0.0
 10
294.060274724101
 20
-159.5895492003974
 30
0.0
 10
290.682078306867
 20
-158.9379352223341
 30
0.0
 10
290.1216590675522
 20
-154.0947154416508
 30
0.0
 10
286.9445338492024
 20
-148.0387571089277
 30
0.0
 10
283.4331982186977
 20
-141.3457689682145
 30
0.0
 10
281.655948901358
 20
-142.5691662114696
 30
0.0
 10
272.1382417086624
 20
-131.784393155568
 30
0.0
 10
267.4316773530809
 20
-126.4512582316347
 30
0.0
 10
258.4663431310019
 20
-115.5007792360748
 30
0.0
 10
250.4627712189158
 20
-109.5834120855297
 30
0.0
  0
HATCH
  5
86
330
79
100
AcDbEntity
  8
Layer 1
 62
   250
420
  2301728
440
 33554687
100
AcDbHatch
 10
0.0
 20
0.0
 30
0.0
210
0.0
220
0.0
230
1.0
  2
SOLID
 70
     1
 71
     1
 91
        1
 92
        1
 93
        1
 72
     4
 94
        3
 73
     0
 74
     0
 95
      104
 96
      100
 40
0.0
 40
0.0
 40
0.0
 40
0.0
 40
1.0
 40
1.0
 40
1.0
 40
2.0
 40
2.0
 40
2.0
 40
3.0
 40
3.0
 40
3.0
 40
4.0
 40
4.0
 40
4.0
 40
5.0
 40
5.0
 40
5.0
 40
6.0
 40
6.0
 40
6.0
 40
7.0
 40
7.0
 40
7.0
 40
8.0
 40
8.0
 40
8.0
 40
9.0
 40
9.0
 40
9.0
 40
10.0
 40
10.0
 40
10.0
 40
11.0
 40
11.0
 40
11.0
 40
12.0
 40
12.0
 40
12.0
 40
13.0
 40
13.0
 40
13.0
 40
14.0
 40
14.0
 40
14.0
 40
15.0
 40
15.0
 40
15.0
 40
16.0
 40
16.0
 40
16.0
 40
17.0
 40
17.0
 40
17.0
 40
18.0
 40
18.0
 40
18.0
 40
19.0
 40
19.0
 40
19.0
 40
20.0
 40
20.0
 40
20.0
 40
21.0
 40
21.0
 40
21.0
 40
22.0
 40
22.0
 40
22.0
 40
23.0
 40
23.0
 40
23.0
 40
24.0
 40
24.0
 40
24.0
 40
25.0
 40
25.0
 40
25.0
 40
26.0
 40
26.0
 40
26.0
 40
27.0
 40
27.0
 40
27.0
 40
28.0
 40
28.0
 40
28.0
 40
29.0
 40
29.0
 40
29.0
 40
30.0
 40
30.0
 40
30.0
 40
31.0
 40
31.0
 40
31.0
 40
32.0
 40
32.0
 40
32.0
 40
33.0
 40
33.0
 40
33.0
 40
33.0
 10
250.4627712189158
 20
-109.5834120855297
 10
249.1207012459545
 20
-108.5911579509857
 10
246.7423601895371
 20
-106.9542793346663
 10
244.8938945089885
 20
-107.7734396665291
 10
243.4749588563045
 20
-108.402246308874
 10
242.6040462447509
 20
-110.3737917384105
 10
242.7627624988181
 20
-112.0796507979066
 10
242.9939282481119
 20
-114.5642323625243
 10
245.3281404062309
 20
-115.6128484237488
 10
250.4061825571571
 20
-119.5252506885081
 10
255.233760758365
 20
-123.244681453677
 10
257.6645681575737
 20
-125.1510201487435
 10
258.498764350561
 20
-127.435720614143
 10
259.7456612282313
 20
-130.8506866662082
 10
258.8579471694957
 20
-135.1275137628108
 10
256.4901042330548
 20
-137.915431372261
 10
255.597317140122
 20
-138.9666118143623
 10
252.9773612849604
 20
-141.5919291850068
 10
245.451283537981
 20
-141.8399819704555
 10
233.9152255526624
 20
-142.2201846122034
 10
231.819860215559
 20
-136.3238808041596
 10
219.5276385874913
 20
-134.0802156717618
 10
210.0157335681015
 20
-132.344043209202
 10
207.515811794301
 20
-135.1893705937791
 10
195.78692665173
 20
-132.300791552535
 10
191.0109082672261
 20
-131.1245579987881
 10
186.3768114052618
 20
-129.4093923545206
 10
184.7041661788762
 20
-125.4817954675172
 10
183.8170366198974
 20
-123.3986602204604
 10
183.9949437627574
 20
-121.2378826989688
 10
184.1168394306105
 20
-119.7574429093374
 10
184.218688470878
 20
-118.5205943050514
 10
184.6598940186149
 20
-113.1619868918851
 10
187.6975289545898
 20
-110.9047393252595
 10
190.7148872656253
 20
-108.6625632686473
 10
195.1456502739693
 20
-110.3339007052427
 10
201.3841301867415
 20
-112.511376248257
 10
216.2020429538261
 20
-117.6834013056368
 10
221.1742639790809
 20
-122.2082165906267
 10
224.3411659845206
 20
-119.9915912450997
 10
225.8192384101112
 20
-118.9570374016912
 10
226.0683333501092
 20
-116.0384635856799
 10
226.5665530760434
 20
-110.2013164665804
 10
227.3509106738966
 20
-101.0116962502106
 10
225.7953544893771
 20
-99.18269131964279
 10
227.5073159564654
 20
-95.36042439922949
 10
229.4035350007125
 20
-91.12679087089782
 10
234.0570058535905
 20
-87.24181446709463
 10
238.6168075396436
 20
-87.32282011693133
 10
242.8464790790786
 20
-87.39796564818698
 10
245.0804181398908
 20
-90.85162153175316
 10
250.5742999561316
 20
-96.44255864533716
 10
260.8543368022129
 20
-106.904227351205
 10
266.2182574219059
 20
-112.3629060858729
 10
271.5619456169315
 20
-112.1174497439524
 10
282.1719222483716
 20
-111.6300881407114
 10
284.5207621289428
 20
-89.03136611602532
 10
295.7346409791608
 20
-88.76156751467261
 10
300.3661695542942
 20
-88.65013061417085
 10
305.2176080108129
 20
-92.37874873175497
 10
305.4463760530871
 20
-95.5570089959192
 10
305.5954612173136
 20
-97.6282814195347
 10
303.7440221150773
 20
-98.94878625528782
 10
296.5904883727417
 20
-105.4619017735795
 10
288.2560599015778
 20
-113.0501905753926
 10
287.4095882628662
 20
-114.3165912627273
 10
287.7346006923999
 20
-115.3667945512407
 10
288.5876544882594
 20
-118.1233226337845
 10
297.1649858984402
 20
-118.2713050089978
 10
303.2256550921939
 20
-118.3758613191385
 10
310.4513515003164
 20
-118.5005215688534
 10
313.89391336886
 20
-117.5841917241296
 10
315.9982431438366
 20
-119.9667939934888
 10
317.5248035157693
 20
-121.6952237550267
 10
318.0423848778955
 20
-124.8147262531802
 10
316.7944429725921
 20
-126.8375834933495
 10
315.2448264223258
 20
-129.3494493813796
 10
311.6820384399852
 20
-129.0209307020795
 10
300.5118436183275
 20
-129.9863083086866
 10
290.2217306303119
 20
-130.8756194260759
 10
289.0052524489129
 20
-131.5208586769367
 10
288.8150179536333
 20
-132.2995524430907
 10
288.1533088407614
 20
-135.0080937876337
 10
300.3367733298601
 20
-137.5742243934155
 10
302.7465666377338
 20
-146.253192414425
 10
303.1088690350571
 20
-147.5580295783411
 10
303.7084169562277
 20
-150.2495137345513
 10
302.6287608756993
 20
-153.1082703323854
 10
301.2116378275041
 20
-156.8605942050253
 10
297.206961033653
 20
-160.1965148754525
 10
294.060274724101
 20
-159.5895492003974
 10
290.682078306867
 20
-158.9379352223341
 10
290.1216590675522
 20
-154.0947154416508
 10
286.9445338492024
 20
-148.0387571089277
 10
283.4331982186977
 20
-141.3457689682145
 10
281.655948901358
 20
-142.5691662114696
 10
272.1382417086624
 20
-131.784393155568
 10
267.4316773530809
 20
-126.4512582316347
 10
258.4663431310019
 20
-115.5007792360748
 10
250.4627712189158
 20
-109.5834120855297
 97
        0
 97
        1
330
85
 75
     2
 76
     1
 98
        1
 10
0.0
 20
0.0
450
        0
451
        0
460
0.0
461
0.0
452
        0
462
0.0
453
        0
470

  0
SPLINE
  5
87
330
79
100
AcDbEntity
  8
Layer 1
 62
   250
420
  2301728
370
    35
100
AcDbSpline
210
0.0
220
0.0
230
1.0
 70
     9
 71
     3
 72
   104
 73
   100
 74
     0
 42
0.0000000001
 43
0.0000000001
 40
0.0
 40
0.0
 40
0.0
 40
0.0
 40
1.0
 40
1.0
 40
1.0
 40
2.0
 40
2.0
 40
2.0
 40
3.0
 40
3.0
 40
3.0
 40
4.0
 40
4.0
 40
4.0
 40
5.0
 40
5.0
 40
5.0
 40
6.0
 40
6.0
 40
6.0
 40
7.0
 40
7.0
 40
7.0
 40
8.0
 40
8.0
 40
8.0
 40
9.0
 40
9.0
 40
9.0
 40
10.0
 40
10.0
 40
10.0
 40
11.0
 40
11.0
 40
11.0
 40
12.0
 40
12.0
 40
12.0
 40
13.0
 40
13.0
 40
13.0
 40
14.0
 40
14.0
 40
14.0
 40
15.0
 40
15.0
 40
15.0
 40
16.0
 40
16.0
 40
16.0
 40
17.0
 40
17.0
 40
17.0
 40
18.0
 40
18.0
 40
18.0
 40
19.0
 40
19.0
 40
19.0
 40
20.0
 40
20.0
 40
20.0
 40
21.0
 40
21.0
 40
21.0
 40
22.0
 40
22.0
 40
22.0
 40
23.0
 40
23.0
 40
23.0
 40
24.0
 40
24.0
 40
24.0
 40
25.0
 40
25.0
 40
25.0
 40
26.0
 40
26.0
 40
26.0
 40
27.0
 40
27.0
 40
27.0
 40
28.0
 40
28.0
 40
28.0
 40
29.0
 40
29.0
 40
29.0
 40
30.0
 40
30.0
 40
30.0
 40
31.0
 40
31.0
 40
31.0
 40
32.0
 40
32.0
 40
32.0
 40
33.0
 40
33.0
 40
33.0
 40
33.0
 10
151.296039641079
 20
-266.2640592586595
 30
0.0
 10
151.3065364569684
 20
-264.5950446102197
 30
0.0
 10
151.2269575884747
 20
-261.708949499367
 30
0.0
 10
149.4756773134341
 20
-260.6985701549056
 30
0.0
 10
148.1313476135628
 20
-259.9229711361058
 30
0.0
 10
146.0253553282255
 20
-260.381530458093
 30
0.0
 10
144.7408874757893
 20
-261.5152360266729
 30
0.0
 10
142.870059152422
 20
-263.1664733019825
 30
0.0
 10
143.398834982785
 20
-265.6701781895827
 30
0.0
 10
143.2315055427452
 20
-272.0784076194923
 30
0.0
 10
143.0724295500322
 20
-278.1705641616536
 30
0.0
 10
142.965259654653
 20
-281.2578714748124
 30
0.0
 10
141.6113454151255
 20
-283.2784297484086
 30
0.0
 10
139.5876442435319
 20
-286.2985917520746
 30
0.0
 10
135.6095046120681
 20
-288.102390891916
 30
0.0
 10
131.9616913950985
 20
-287.8329034101225
 30
0.0
 10
130.5862913324163
 20
-287.731297392922
 30
0.0
 10
126.9212252056832
 20
-287.1623068250865
 30
0.0
 10
122.2847150664647
 20
-281.228829752843
 30
0.0
 10
115.177831858261
 20
-272.1339191455627
 30
0.0
 10
118.7058815036898
 20
-266.9657647175191
 30
0.0
 10
113.2728924679313
 20
-255.7134149221565
 30
0.0
 10
109.0687568382445
 20
-247.0061837017929
 30
0.0
 10
105.2967152626061
 20
-246.663840084635
 30
0.0
 10
100.7167480626749
 20
-235.486428219061
 30
0.0
 10
98.85177914608812
 20
-230.9349704391552
 30
0.0
 10
97.50582175724503
 20
-226.1804940620186
 30
0.0
 10
99.69268372894021
 20
-222.5142433781584
 30
0.0
 10
100.8525695628741
 20
-220.5697341433697
 30
0.0
 10
102.7029453496998
 20
-219.4398138380402
 30
0.0
 10
103.9707181703443
 20
-218.6656610108821
 30
0.0
 10
105.0298979009476
 20
-218.0188952146254
 30
0.0
 10
109.6187297797396
 20
-215.2167607189258
 30
0.0
 10
113.2326575524757
 20
-216.3401122377054
 30
0.0
 10
116.8224585743737
 20
-217.4559676356839
 30
0.0
 10
118.0839691350856
 20
-222.0203537683701
 30
0.0
 10
120.0021436239849
 20
-228.3433782023458
 30
0.0
 10
124.5582851448716
 20
-243.3620984011104
 30
0.0
 10
123.8338639033964
 20
-250.0458211027289
 30
0.0
 10
127.4911708423642
 20
-251.2975407952581
 30
0.0
 10
129.1981269731559
 20
-251.8817501051453
 30
0.0
 10
131.7026234581308
 20
-250.3626652604471
 30
0.0
 10
136.7116336059507
 20
-247.3245199834164
 30
0.0
 10
144.5974855078211
 20
-242.5414585846665
 30
0.0
 10
145.1580870998204
 20
-240.2067766075488
 30
0.0
 10
149.2548654043585
 20
-239.3367513210578
 30
0.0
 10
153.7925600932994
 20
-238.3730986730825
 30
0.0
 10
159.6738229367374
 20
-239.8423093465644
 30
0.0
 10
162.2960891949797
 20
-243.5735387689292
 30
0.0
 10
164.7284992896939
 20
-247.0346295382551
 30
0.0
 10
163.2553404534483
 20
-250.8749453758792
 30
0.0
 10
161.9771734842315
 20
-258.6084830151303
 30
0.0
 10
159.5854747617459
 20
-273.0793311896123
 30
0.0
 10
158.3375446614482
 20
-280.629926424921
 30
0.0
 10
161.6855818907152
 20
-284.8019641827668
 30
0.0
 10
168.3331656489026
 20
-293.0856080446101
 30
0.0
 10
187.9732675762116
 20
-281.6625750752755
 30
0.0
 10
194.8010611434219
 20
-290.5623000798023
 30
0.0
 10
197.6210639166602
 20
-294.2380393910171
 30
0.0
 10
197.4686302864593
 20
-300.3548859766779
 30
0.0
 10
195.0360237451878
 20
-302.4130644284396
 30
0.0
 10
193.4506921430493
 20
-303.754377050569
 30
0.0
 10
191.2926649930796
 20
-303.0371054210409
 30
0.0
 10
181.81472560983
 20
-301.0974188987475
 30
0.0
 10
170.772183807212
 20
-298.8375305346672
 30
0.0
 10
169.2502252543836
 20
-298.9001971086818
 30
0.0
 10
168.5934274744713
 20
-299.7817733690554
 30
0.0
 10
166.8694785375328
 20
-302.0956765457922
 30
0.0
 10
171.805710102516
 20
-309.1118101562861
 30
0.0
 10
175.2936146828833
 20
-314.069346312117
 30
0.0
 10
179.4519860829796
 20
-319.9798603387535
 30
0.0
 10
182.2213765885026
 20
-322.22070143776
 30
0.0
 10
181.5370360974975
 20
-325.3250009510448
 30
0.0
 10
181.0405896323655
 20
-327.5769771758278
 30
0.0
 10
178.8256850732423
 20
-329.8338298729214
 30
0.0
 10
176.4560082404978
 20
-330.0180637500198
 30
0.0
 10
173.5134848635953
 20
-330.2468384616805
 30
0.0
 10
171.6788378202309
 20
-327.1751202200394
 30
0.0
 10
164.3148930971192
 20
-318.7206820724168
 30
0.0
 10
157.5311466215353
 20
-310.9323521278966
 30
0.0
 10
156.2928777901279
 20
-310.3299874892982
 30
0.0
 10
155.5517055565269
 20
-310.6353018597074
 30
0.0
 10
152.9736677308829
 20
-311.6972699075814
 30
0.0
 10
158.0820587184589
 20
-323.0518361591421
 30
0.0
 10
152.4914623589602
 20
-330.11418860302
 30
0.0
 10
151.6509471858026
 20
-331.1759782691661
 30
0.0
 10
149.8301167082773
 20
-333.246756153203
 30
0.0
 10
146.8843802426254
 20
-334.0596418849091
 30
0.0
 10
143.0178909732158
 20
-335.1266155998855
 30
0.0
 10
137.9625858065783
 20
-333.857878978386
 30
0.0
 10
136.5981374085022
 20
-330.9581681944583
 30
0.0
 10
135.1332966154304
 20
-327.8451225377466
 30
0.0
 10
138.7153978905107
 20
-324.53764645728
 30
0.0
 10
141.7347925767344
 20
-318.4015229489414
 30
0.0
 10
145.0717951832475
 20
-311.6199315600497
 30
0.0
 10
143.0359431354791
 20
-310.9053530896344
 30
0.0
 10
146.1379941193518
 20
-296.8598783818634
 30
0.0
 10
147.6719762795146
 20
-289.914306059698
 30
0.0
 10
151.2334748410403
 20
-276.2173744346219
 30
0.0
 10
151.296039641079
 20
-266.2640592586595
 30
0.0
  0
HATCH
  5
88
330
79
100
AcDbEntity
  8
Layer 1
 62
   250
420
  2301728
440
 33554687
100
AcDbHatch
 10
0.0
 20
0.0
 30
0.0
210
0.0
220
0.0
230
1.0
  2
SOLID
 70
     1
 71
     1
 91
        1
 92
        1
 93
        1
 72
     4
 94
        3
 73
     0
 74
     0
 95
      104
 96
      100
 40
0.0
 40
0.0
 40
0.0
 40
0.0
 40
1.0
 40
1.0
 40
1.0
 40
2.0
 40
2.0
 40
2.0
 40
3.0
 40
3.0
 40
3.0
 40
4.0
 40
4.0
 40
4.0
 40
5.0
 40
5.0
 40
5.0
 40
6.0
 40
6.0
 40
6.0
 40
7.0
 40
7.0
 40
7.0
 40
8.0
 40
8.0
 40
8.0
 40
9.0
 40
9.0
 40
9.0
 40
10.0
 40
10.0
 40
10.0
 40
11.0
 40
11.0
 40
11.0
 40
12.0
 40
12.0
 40
12.0
 40
13.0
 40
13.0
 40
13.0
 40
14.0
 40
14.0
 40
14.0
 40
15.0
 40
15.0
 40
15.0
 40
16.0
 40
16.0
 40
16.0
 40
17.0
 40
17.0
 40
17.0
 40
18.0
 40
18.0
 40
18.0
 40
19.0
 40
19.0
 40
19.0
 40
20.0
 40
20.0
 40
20.0
 40
21.0
 40
21.0
 40
21.0
 40
22.0
 40
22.0
 40
22.0
 40
23.0
 40
23.0
 40
23.0
 40
24.0
 40
24.0
 40
24.0
 40
25.0
 40
25.0
 40
25.0
 40
26.0
 40
26.0
 40
26.0
 40
27.0
 40
27.0
 40
27.0
 40
28.0
 40
28.0
 40
28.0
 40
29.0
 40
29.0
 40
29.0
 40
30.0
 40
30.0
 40
30.0
 40
31.0
 40
31.0
 40
31.0
 40
32.0
 40
32.0
 40
32.0
 40
33.0
 40
33.0
 40
33.0
 40
33.0
 10
151.296039641079
 20
-266.2640592586595
 10
151.3065364569684
 20
-264.5950446102197
 10
151.2269575884747
 20
-261.708949499367
 10
149.4756773134341
 20
-260.6985701549056
 10
148.1313476135628
 20
-259.9229711361058
 10
146.0253553282255
 20
-260.381530458093
 10
144.7408874757893
 20
-261.5152360266729
 10
142.870059152422
 20
-263.1664733019825
 10
143.398834982785
 20
-265.6701781895827
 10
143.2315055427452
 20
-272.0784076194923
 10
143.0724295500322
 20
-278.1705641616536
 10
142.965259654653
 20
-281.2578714748124
 10
141.6113454151255
 20
-283.2784297484086
 10
139.5876442435319
 20
-286.2985917520746
 10
135.6095046120681
 20
-288.102390891916
 10
131.9616913950985
 20
-287.8329034101225
 10
130.5862913324163
 20
-287.731297392922
 10
126.9212252056832
 20
-287.1623068250865
 10
122.2847150664647
 20
-281.228829752843
 10
115.177831858261
 20
-272.1339191455627
 10
118.7058815036898
 20
-266.9657647175191
 10
113.2728924679313
 20
-255.7134149221565
 10
109.0687568382445
 20
-247.0061837017929
 10
105.2967152626061
 20
-246.663840084635
 10
100.7167480626749
 20
-235.486428219061
 10
98.85177914608812
 20
-230.9349704391552
 10
97.50582175724503
 20
-226.1804940620186
 10
99.69268372894021
 20
-222.5142433781584
 10
100.8525695628741
 20
-220.5697341433697
 10
102.7029453496998
 20
-219.4398138380402
 10
103.9707181703443
 20
-218.6656610108821
 10
105.0298979009476
 20
-218.0188952146254
 10
109.6187297797396
 20
-215.2167607189258
 10
113.2326575524757
 20
-216.3401122377054
 10
116.8224585743737
 20
-217.4559676356839
 10
118.0839691350856
 20
-222.0203537683701
 10
120.0021436239849
 20
-228.3433782023458
 10
124.5582851448716
 20
-243.3620984011104
 10
123.8338639033964
 20
-250.0458211027289
 10
127.4911708423642
 20
-251.2975407952581
 10
129.1981269731559
 20
-251.8817501051453
 10
131.7026234581308
 20
-250.3626652604471
 10
136.7116336059507
 20
-247.3245199834164
 10
144.5974855078211
 20
-242.5414585846665
 10
145.1580870998204
 20
-240.2067766075488
 10
149.2548654043585
 20
-239.3367513210578
 10
153.7925600932994
 20
-238.3730986730825
 10
159.6738229367374
 20
-239.8423093465644
 10
162.2960891949797
 20
-243.5735387689292
 10
164.7284992896939
 20
-247.0346295382551
 10
163.2553404534483
 20
-250.8749453758792
 10
161.9771734842315
 20
-258.6084830151303
 10
159.5854747617459
 20
-273.0793311896123
 10
158.3375446614482
 20
-280.629926424921
 10
161.6855818907152
 20
-284.8019641827668
 10
168.3331656489026
 20
-293.0856080446101
 10
187.9732675762116
 20
-281.6625750752755
 10
194.8010611434219
 20
-290.5623000798023
 10
197.6210639166602
 20
-294.2380393910171
 10
197.4686302864593
 20
-300.3548859766779
 10
195.0360237451878
 20
-302.4130644284396
 10
193.4506921430493
 20
-303.754377050569
 10
191.2926649930796
 20
-303.0371054210409
 10
181.81472560983
 20
-301.0974188987475
 10
170.772183807212
 20
-298.8375305346672
 10
169.2502252543836
 20
-298.9001971086818
 10
168.5934274744713
 20
-299.7817733690554
 10
166.8694785375328
 20
-302.0956765457922
 10
171.805710102516
 20
-309.1118101562861
 10
175.2936146828833
 20
-314.069346312117
 10
179.4519860829796
 20
-319.9798603387535
 10
182.2213765885026
 20
-322.22070143776
 10
181.5370360974975
 20
-325.3250009510448
 10
181.0405896323655
 20
-327.5769771758278
 10
178.8256850732423
 20
-329.8338298729214
 10
176.4560082404978
 20
-330.0180637500198
 10
173.5134848635953
 20
-330.2468384616805
 10
171.6788378202309
 20
-327.1751202200394
 10
164.3148930971192
 20
-318.7206820724168
 10
157.5311466215353
 20
-310.9323521278966
 10
156.2928777901279
 20
-310.3299874892982
 10
155.5517055565269
 20
-310.6353018597074
 10
152.9736677308829
 20
-311.6972699075814
 10
158.0820587184589
 20
-323.0518361591421
 10
152.4914623589602
 20
-330.11418860302
 10
151.6509471858026
 20
-331.1759782691661
 10
149.8301167082773
 20
-333.246756153203
 10
146.8843802426254
 20
-334.0596418849091
 10
143.0178909732158
 20
-335.1266155998855
 10
137.9625858065783
 20
-333.857878978386
 10
136.5981374085022
 20
-330.9581681944583
 10
135.1332966154304
 20
-327.8451225377466
 10
138.7153978905107
 20
-324.53764645728
 10
141.7347925767344
 20
-318.4015229489414
 10
145.0717951832475
 20
-311.6199315600497
 10
143.0359431354791
 20
-310.9053530896344
 10
146.1379941193518
 20
-296.8598783818634
 10
147.6719762795146
 20
-289.914306059698
 10
151.2334748410403
 20
-276.2173744346219
 10
151.296039641079
 20
-266.2640592586595
 97
        0
 97
        1
330
87
 75
     2
 76
     1
 98
        1
 10
0.0
 20
0.0
450
        0
451
        0
460
0.0
461
0.0
452
        0
462
0.0
453
        0
470

  0
SPLINE
  5
89
330
79
100
AcDbEntity
  8
Layer 1
 62
   250
420
  2301728
370
    35
100
AcDbSpline
210
0.0
220
0.0
230
1.0
 70
     9
 71
     3
 72
   104
 73
   100
 74
     0
 42
0.0000000001
 43
0.0000000001
 40
0.0
 40
0.0
 40
0.0
 40
0.0
 40
1.0
 40
1.0
 40
1.0
 40
2.0
 40
2.0
 40
2.0
 40
3.0
 40
3.0
 40
3.0
 40
4.0
 40
4.0
 40
4.0
 40
5.0
 40
5.0
 40
5.0
 40
6.0
 40
6.0
 40
6.0
 40
7.0
 40
7.0
 40
7.0
 40
8.0
 40
8.0
 40
8.0
 40
9.0
 40
9.0
 40
9.0
 40
10.0
 40
10.0
 40
10.0
 40
11.0
 40
11.0
 40
11.0
 40
12.0
 40
12.0
 40
12.0
 40
13.0
 40
13.0
 40
13.0
 40
14.0
 40
14.0
 40
14.0
 40
15.0
 40
15.0
 40
15.0
 40
16.0
 40
16.0
 40
16.0
 40
17.0
 40
17.0
 40
17.0
 40
18.0
 40
18.0
 40
18.0
 40
19.0
 40
19.0
 40
19.0
 40
20.0
 40
20.0
 40
20.0
 40
21.0
 40
21.0
 40
21.0
 40
22.0
 40
22.0
 40
22.0
 40
23.0
 40
23.0
 40
23.0
 40
24.0
 40
24.0
 40
24.0
 40
25.0
 40
25.0
 40
25.0
 40
26.0
 40
26.0
 40
26.0
 40
27.0
 40
27.0
 40
27.0
 40
28.0
 40
28.0
 40
28.0
 40
29.0
 40
29.0
 40
29.0
 40
30.0
 40
30.0
 40
30.0
 40
31.0
 40
31.0
 40
31.0
 40
32.0
 40
32.0
 40
32.0
 40
33.0
 40
33.0
 40
33.0
 40
33.0
 10
272.4259213000751
 20
-221.6342002275123
 30
0.0
 10
271.7595826727465
 20
-220.1039345925383
 30
0.0
 10
270.5179792309627
 20
-217.4973470381774
 30
0.0
 10
268.5075529091482
 20
-217.2827892930109
 30
0.0
 10
266.964293834857
 20
-217.1180846800307
 30
0.0
 10
265.2244540958509
 20
-218.3902630638531
 30
0.0
 10
264.5091793132724
 20
-219.9470315005747
 30
0.0
 10
263.4673787944284
 20
-222.2144606248985
 30
0.0
 10
264.9648276454118
 20
-224.289500138173
 30
0.0
 10
267.4071107891232
 20
-230.2164434156002
 30
0.0
 10
269.7289335226724
 20
-235.8510521597491
 30
0.0
 10
270.8812778694446
 20
-238.7172437686277
 30
0.0
 10
270.4616742775361
 20
-241.1130050945248
 30
0.0
 10
269.834501295436
 20
-244.6939824765832
 30
0.0
 10
266.9277287802106
 20
-247.9543443903949
 30
0.0
 10
263.4833178842764
 20
-249.1852783239265
 30
0.0
 10
262.1846117052282
 20
-249.6494026344881
 30
0.0
 10
258.6031300330124
 20
-250.6134819938852
 30
0.0
 10
251.9608677594169
 20
-247.066126876809
 30
0.0
 10
241.7795399823608
 20
-241.6286869842115
 30
0.0
 10
242.9122519824068
 20
-235.4745080773518
 30
0.0
 10
233.3876564973125
 20
-227.3865647896418
 30
0.0
 10
226.0173774052983
 20
-221.1280012145508
 30
0.0
 10
222.4298758721289
 20
-222.3426326607369
 30
0.0
 10
213.7155650406476
 20
-213.9777404141241
 30
0.0
 10
210.1670855892407
 20
-210.5715445059213
 30
0.0
 10
207.0109283571855
 20
-206.7695294559944
 30
0.0
 10
207.5256224572313
 20
-202.5317411951764
 30
0.0
 10
207.798621059972
 20
-200.2840928519399
 30
0.0
 10
209.0328501372423
 20
-198.5015976812064
 30
0.0
 10
209.8784759690716
 20
-197.2803370713845
 30
0.0
 10
210.5849714503547
 20
-196.2600273968964
 30
0.0
 10
213.6457955469087
 20
-191.8395419491462
 30
0.0
 10
217.4050316200064
 20
-191.4030368197345
 30
0.0
 10
221.1391722449534
 20
-190.9694489518806
 30
0.0
 10
224.1411331425807
 20
-194.6318607845605
 30
0.0
 10
228.4557282785881
 20
-199.6362888412768
 30
0.0
 10
238.7039504972908
 20
-211.5230177152443
 30
0.0
 10
240.7484454402984
 20
-217.9274673961518
 30
0.0
 10
244.5993319480312
 20
-217.5907637593427
 30
0.0
 10
246.396636718373
 20
-217.4336163358203
 30
0.0
 10
248.0713336658973
 20
-215.0303869371601
 30
0.0
 10
251.420753153825
 20
-210.2239435036827
 30
0.0
 10
256.6938528908686
 20
-202.6569919559588
 30
0.0
 10
256.2608970613656
 20
-200.2953054126301
 30
0.0
 10
259.6543134647873
 20
-197.8406645858158
 30
0.0
 10
263.4129505643923
 20
-195.1218511186107
 30
0.0
 10
269.3853277387552
 20
-194.0833216179089
 30
0.0
 10
273.2940345827028
 20
-196.4328671355579
 30
0.0
 10
276.9197482694635
 20
-198.6123093678798
 30
0.0
 10
277.1281025054359
 20
-202.7202055693269
 30
0.0
 10
279.0914620171261
 20
-210.3087847938423
 30
0.0
 10
282.7652473009639
 20
-224.508396456009
 30
0.0
 10
284.6821629596943
 20
-231.9174620043777
 30
0.0
 10
289.432980625892
 20
-234.3761168894707
 30
0.0
 10
298.8658056286786
 20
-239.2578110542927
 30
0.0
 10
312.1969291984042
 20
-220.8594298672888
 30
0.0
 10
322.0440311277835
 20
-226.2314363588248
 30
0.0
 10
326.1110595445844
 20
-228.4501645941
 30
0.0
 10
328.44895477512
 20
-234.1046578565583
 30
0.0
 10
327.0583164002019
 20
-236.9716768718663
 30
0.0
 10
326.1520346952057
 20
-238.8401118614256
 30
0.0
 10
323.888417332766
 20
-239.0582774109462
 30
0.0
 10
314.4369860807801
 20
-241.1232631363964
 30
0.0
 10
303.4253276685577
 20
-243.5291317722913
 30
0.0
 10
302.0591489769013
 20
-244.2028087857725
 30
0.0
 10
301.8156557613565
 20
-245.2748494009247
 30
0.0
 10
301.1765238890639
 20
-248.0886827823306
 30
0.0
 10
308.5312939093328
 20
-252.5045485923838
 30
0.0
 10
313.7281150417566
 20
-255.6247558316081
 30
0.0
 10
319.9239053749934
 20
-259.3447572975729
 30
0.0
 10
323.3635369425283
 20
-260.2720260195183
 30
0.0
 10
323.9950439989425
 20
-263.3875029033224
 30
0.0
 10
324.4531630903712
 20
-265.6475876158475
 30
0.0
 10
323.3420354296832
 20
-268.6080912257184
 30
0.0
 10
321.2500041058865
 20
-269.7362380926497
 30
0.0
 10
318.6522460130127
 20
-271.1371073168193
 30
0.0
 10
315.7307718227585
 20
-269.0715877004877
 30
0.0
 10
305.5737930480791
 20
-264.3238526143905
 30
0.0
 10
296.2170693937787
 20
-259.9501788694979
 30
0.0
 10
294.8409423417524
 20
-259.9009123153901
 30
0.0
 10
294.2869228847467
 20
-260.4802357016779
 30
0.0
 10
292.3598573370636
 20
-262.4952973732106
 30
0.0
 10
301.6290628868792
 20
-270.8081585965374
 30
0.0
 10
299.3776552271902
 20
-279.5295548864833
 30
0.0
 10
299.0391702355646
 20
-280.8407722452339
 30
0.0
 10
298.2129939921088
 20
-283.4715473187898
 30
0.0
 10
295.8488578719189
 20
-285.4077825687273
 30
0.0
 10
292.7457618444223
 20
-287.9492323957038
 30
0.0
 10
287.6097650173851
 20
-288.8365539469159
 30
0.0
 10
285.1878646367168
 20
-286.7378780292129
 30
0.0
 10
282.5877746932838
 20
-284.484803663845
 30
0.0
 10
284.5234653886127
 20
-280.0099909191795
 30
0.0
 10
284.7990848029713
 20
-273.1767786497403
 30
0.0
 10
285.1036909411978
 20
-265.6247734019707
 30
0.0
 10
282.952871500147
 20
-265.7959215330793
 30
0.0
 10
280.1008484097892
 20
-251.6975512597019
 30
0.0
 10
278.6905049461075
 20
-244.7258221008342
 30
0.0
 10
276.3997210998387
 20
-230.760059775941
 30
0.0
 10
272.4259213000751
 20
-221.6342002275123
 30
0.0
  0
HATCH
  5
8A
330
79
100
AcDbEntity
  8
Layer 1
 62
   250
420
  2301728
440
 33554687
100
AcDbHatch
 10
0.0
 20
0.0
 30
0.0
210
0.0
220
0.0
230
1.0
  2
SOLID
 70
     1
 71
     1
 91
        1
 92
        1
 93
        1
 72
     4
 94
        3
 73
     0
 74
     0
 95
      104
 96
      100
 40
0.0
 40
0.0
 40
0.0
 40
0.0
 40
1.0
 40
1.0
 40
1.0
 40
2.0
 40
2.0
 40
2.0
 40
3.0
 40
3.0
 40
3.0
 40
4.0
 40
4.0
 40
4.0
 40
5.0
 40
5.0
 40
5.0
 40
6.0
 40
6.0
 40
6.0
 40
7.0
 40
7.0
 40
7.0
 40
8.0
 40
8.0
 40
8.0
 40
9.0
 40
9.0
 40
9.0
 40
10.0
 40
10.0
 40
10.0
 40
11.0
 40
11.0
 40
11.0
 40
12.0
 40
12.0
 40
12.0
 40
13.0
 40
13.0
 40
13.0
 40
14.0
 40
14.0
 40
14.0
 40
15.0
 40
15.0
 40
15.0
 40
16.0
 40
16.0
 40
16.0
 40
17.0
 40
17.0
 40
17.0
 40
18.0
 40
18.0
 40
18.0
 40
19.0
 40
19.0
 40
19.0
 40
20.0
 40
20.0
 40
20.0
 40
21.0
 40
21.0
 40
21.0
 40
22.0
 40
22.0
 40
22.0
 40
23.0
 40
23.0
 40
23.0
 40
24.0
 40
24.0
 40
24.0
 40
25.0
 40
25.0
 40
25.0
 40
26.0
 40
26.0
 40
26.0
 40
27.0
 40
27.0
 40
27.0
 40
28.0
 40
28.0
 40
28.0
 40
29.0
 40
29.0
 40
29.0
 40
30.0
 40
30.0
 40
30.0
 40
31.0
 40
31.0
 40
31.0
 40
32.0
 40
32.0
 40
32.0
 40
33.0
 40
33.0
 40
33.0
 40
33.0
 10
272.4259213000751
 20
-221.6342002275123
 10
271.7595826727465
 20
-220.1039345925383
 10
270.5179792309627
 20
-217.4973470381774
 10
268.5075529091482
 20
-217.2827892930109
 10
266.964293834857
 20
-217.1180846800307
 10
265.2244540958509
 20
-218.3902630638531
 10
264.5091793132724
 20
-219.9470315005747
 10
263.4673787944284
 20
-222.2144606248985
 10
264.9648276454118
 20
-224.289500138173
 10
267.4071107891232
 20
-230.2164434156002
 10
269.7289335226724
 20
-235.8510521597491
 10
270.8812778694446
 20
-238.7172437686277
 10
270.4616742775361
 20
-241.1130050945248
 10
269.834501295436
 20
-244.6939824765832
 10
266.9277287802106
 20
-247.9543443903949
 10
263.4833178842764
 20
-249.1852783239265
 10
262.1846117052282
 20
-249.6494026344881
 10
258.6031300330124
 20
-250.6134819938852
 10
251.9608677594169
 20
-247.066126876809
 10
241.7795399823608
 20
-241.6286869842115
 10
242.9122519824068
 20
-235.4745080773518
 10
233.3876564973125
 20
-227.3865647896418
 10
226.0173774052983
 20
-221.1280012145508
 10
222.4298758721289
 20
-222.3426326607369
 10
213.7155650406476
 20
-213.9777404141241
 10
210.1670855892407
 20
-210.5715445059213
 10
207.0109283571855
 20
-206.7695294559944
 10
207.5256224572313
 20
-202.5317411951764
 10
207.798621059972
 20
-200.2840928519399
 10
209.0328501372423
 20
-198.5015976812064
 10
209.8784759690716
 20
-197.2803370713845
 10
210.5849714503547
 20
-196.2600273968964
 10
213.6457955469087
 20
-191.8395419491462
 10
217.4050316200064
 20
-191.4030368197345
 10
221.1391722449534
 20
-190.9694489518806
 10
224.1411331425807
 20
-194.6318607845605
 10
228.4557282785881
 20
-199.6362888412768
 10
238.7039504972908
 20
-211.5230177152443
 10
240.7484454402984
 20
-217.9274673961518
 10
244.5993319480312
 20
-217.5907637593427
 10
246.396636718373
 20
-217.4336163358203
 10
248.0713336658973
 20
-215.0303869371601
 10
251.420753153825
 20
-210.2239435036827
 10
256.6938528908686
 20
-202.6569919559588
 10
256.2608970613656
 20
-200.2953054126301
 10
259.6543134647873
 20
-197.8406645858158
 10
263.4129505643923
 20
-195.1218511186107
 10
269.3853277387552
 20
-194.0833216179089
 10
273.2940345827028
 20
-196.4328671355579
 10
276.9197482694635
 20
-198.6123093678798
 10
277.1281025054359
 20
-202.7202055693269
 10
279.0914620171261
 20
-210.3087847938423
 10
282.7652473009639
 20
-224.508396456009
 10
284.6821629596943
 20
-231.9174620043777
 10
289.432980625892
 20
-234.3761168894707
 10
298.8658056286786
 20
-239.2578110542927
 10
312.1969291984042
 20
-220.8594298672888
 10
322.0440311277835
 20
-226.2314363588248
 10
326.1110595445844
 20
-228.4501645941
 10
328.44895477512
 20
-234.1046578565583
 10
327.0583164002019
 20
-236.9716768718663
 10
326.1520346952057
 20
-238.8401118614256
 10
323.888417332766
 20
-239.0582774109462
 10
314.4369860807801
 20
-241.1232631363964
 10
303.4253276685577
 20
-243.5291317722913
 10
302.0591489769013
 20
-244.2028087857725
 10
301.8156557613565
 20
-245.2748494009247
 10
301.1765238890639
 20
-248.0886827823306
 10
308.5312939093328
 20
-252.5045485923838
 10
313.7281150417566
 20
-255.6247558316081
 10
319.9239053749934
 20
-259.3447572975729
 10
323.3635369425283
 20
-260.2720260195183
 10
323.9950439989425
 20
-263.3875029033224
 10
324.4531630903712
 20
-265.6475876158475
 10
323.3420354296832
 20
-268.6080912257184
 10
321.2500041058865
 20
-269.7362380926497
 10
318.6522460130127
 20
-271.1371073168193
 10
315.7307718227585
 20
-269.0715877004877
 10
305.5737930480791
 20
-264.3238526143905
 10
296.2170693937787
 20
-259.9501788694979
 10
294.8409423417524
 20
-259.9009123153901
 10
294.2869228847467
 20
-260.4802357016779
 10
292.3598573370636
 20
-262.4952973732106
 10
301.6290628868792
 20
-270.8081585965374
 10
299.3776552271902
 20
-279.5295548864833
 10
299.0391702355646
 20
-280.8407722452339
 10
298.2129939921088
 20
-283.4715473187898
 10
295.8488578719189
 20
-285.4077825687273
 10
292.7457618444223
 20
-287.9492323957038
 10
287.6097650173851
 20
-288.8365539469159
 10
285.1878646367168
 20
-286.7378780292129
 10
282.5877746932838
 20
-284.484803663845
 10
284.5234653886127
 20
-280.0099909191795
 10
284.7990848029713
 20
-273.1767786497403
 10
285.1036909411978
 20
-265.6247734019707
 10
282.952871500147
 20
-265.7959215330793
 10
280.1008484097892
 20
-251.6975512597019
 10
278.6905049461075
 20
-244.7258221008342
 10
276.3997210998387
 20
-230.760059775941
 10
272.4259213000751
 20
-221.6342002275123
 97
        0
 97
        1
330
89
 75
     2
 76
     1
 98
        1
 10
0.0
 20
0.0
450
        0
451
        0
460
0.0
461
0.0
452
        0
462
0.0
453
        0
470

  0
ENDBLK
  5
7C
330
79
100
AcDbEntity
  8
0
100
AcDbBlockEnd
  0
BLOCK
  5
8E
330
8C
100
AcDbEntity
  8
0
100
AcDbBlockBegin
  2
Block_1
 70
     0
 10
0.0
 20
0.0
 30
0.0
  3
Block_1
  1

  0
CIRCLE
  5
90
330
8C
100
AcDbEntity
  8
Layer 2
 62
    18
420
        0
370
    35
100
AcDbCircle
 10
561.0418843182864
 20
-228.6359337133754
 30
0.0
 40
50.94942121570216
  0
ELLIPSE
  5
91
330
8C
100
AcDbEntity
  8
Layer 2
 62
    18
420
        0
370
    35
100
AcDbEllipse
 10
537.4289117007142
 20
-226.5469608154372
 30
0.0
 11
0.0000000000000013
 21
21.60706851212672
 31
0.0
210
0.0
220
0.0
230
1.0
 40
0.6596145349656481
 41
0.0
 42
6.283185307179586
  0
HATCH
  5
92
330
8C
100
AcDbEntity
  8
Layer 2
 62
    18
420
        0
440
 33554687
100
AcDbHatch
 10
0.0
 20
0.0
 30
0.0
210
0.0
220
0.0
230
1.0
  2
SOLID
 70
     1
 71
     1
 91
        1
 92
        1
 93
        1
 72
     3
 10
537.4289117007142
 20
-226.5469608154372
 11
0.0000000000000013
 21
21.60706851212672
 40
0.6596145349656481
 50
0.0
 51
360.0
 73
     1
 97
        1
330
91
 75
     2
 76
     1
 98
        1
 10
0.0
 20
0.0
450
        0
451
        0
460
0.0
461
0.0
452
        0
462
0.0
453
        0
470

  0
ELLIPSE
  5
93
330
8C
100
AcDbEntity
  8
Layer 2
 62
    18
420
        0
370
    35
100
AcDbEllipse
 10
584.1578836633325
 20
-226.5469608154372
 30
0.0
 11
0.0000000000000013
 21
21.60706851212672
 31
0.0
210
0.0
220
0.0
230
1.0
 40
0.659614534965627
 41
0.0
 42
6.283185307179586
  0
HATCH
  5
94
330
8C
100
AcDbEntity
  8
Layer 2
 62
    18
420
        0
440
 33554687
100
AcDbHatch
 10
0.0
 20
0.0
 30
0.0
210
0.0
220
0.0
230
1.0
  2
SOLID
 70
     1
 71
     1
 91
        1
 92
        1
 93
        1
 72
     3
 10
584.1578836633325
 20
-226.5469608154372
 11
0.0000000000000013
 21
21.60706851212672
 40
0.659614534965627
 50
0.0
 51
360.0
 73
     1
 97
        1
330
93
 75
     2
 76
     1
 98
        1
 10
0.0
 20
0.0
450
        0
451
        0
460
0.0
461
0.0
452
        0
462
0.0
453
        0
470

  0
LWPOLYLINE
  5
95
330
8C
100
AcDbEntity
  8
Layer 2
 62
    18
420
        0
370
    35
100
AcDbPolyline
 90
       18
 70
     1
 43
0.0
 10
558.338057675146
 20
-177.7449384254114
 10
558.3628390621943
 20
-151.7747371874984
 10
578.4055568449712
 20
-150.3476716584564
 10
589.613517428179
 20
-110.3733342384221
 10
557.8093988996461
 20
-137.4222699043402
 10
554.3408441070041
 20
-121.6052434826424
 10
573.7657870883067
 20
-111.5017116334775
 10
565.7878002224769
 20
-104.7262148067739
 10
584.1829803823148
 20
-93.31908973216014
 10
567.4030306106888
 20
-94.51384226810114
 10
551.5771147319737
 20
-82.78947310314197
 10
539.9675863003213
 20
-97.3852211684507
 10
524.4450005928083
 20
-103.0801597846239
 10
536.0233267879993
 20
-111.0746529350799
 10
522.5153255743207
 20
-122.035373784307
 10
550.3952723679049
 20
-112.2477779113942
 10
551.2731628752681
 20
-124.5774932084132
 10
553.2108508004803
 20
-178.1100017002818
  0
HATCH
  5
96
330
8C
100
AcDbEntity
  8
Layer 2
 62
    18
420
        0
440
 33554687
100
AcDbHatch
 10
0.0
 20
0.0
 30
0.0
210
0.0
220
0.0
230
1.0
  2
SOLID
 70
     1
 71
     1
 91
        1
 92
        1
 93
       18
 72
     1
 10
558.338057675146
 20
-177.7449384254114
 11
558.3628390621943
 21
-151.7747371874984
 72
     1
 10
558.3628390621943
 20
-151.7747371874984
 11
578.4055568449712
 21
-150.3476716584564
 72
     1
 10
578.4055568449712
 20
-150.3476716584564
 11
589.613517428179
 21
-110.3733342384221
 72
     1
 10
589.613517428179
 20
-110.3733342384221
 11
557.8093988996461
 21
-137.4222699043402
 72
     1
 10
557.8093988996461
 20
-137.4222699043402
 11
554.3408441070041
 21
-121.6052434826424
 72
     1
 10
554.3408441070041
 20
-121.6052434826424
 11
573.7657870883067
 21
-111.5017116334775
 72
     1
 10
573.7657870883067
 20
-111.5017116334775
 11
565.7878002224769
 21
-104.7262148067739
 72
     1
 10
565.7878002224769
 20
-104.7262148067739
 11
584.1829803823148
 21
-93.31908973216014
 72
     1
 10
584.1829803823148
 20
-93.31908973216014
 11
567.4030306106888
 21
-94.51384226810114
 72
     1
 10
567.4030306106888
 20
-94.51384226810114
 11
551.5771147319737
 21
-82.78947310314197
 72
     1
 10
551.5771147319737
 20
-82.78947310314197
 11
539.9675863003213
 21
-97.3852211684507
 72
     1
 10
539.9675863003213
 20
-97.3852211684507
 11
524.4450005928083
 21
-103.0801597846239
 72
     1
 10
524.4450005928083
 20
-103.0801597846239
 11
536.0233267879993
 21
-111.0746529350799
 72
     1
 10
536.0233267879993
 20
-111.0746529350799
 11
522.5153255743207
 21
-122.035373784307
 72
     1
 10
522.5153255743207
 20
-122.035373784307
 11
550.3952723679049
 21
-112.2477779113942
 72
     1
 10
550.3952723679049
 20
-112.2477779113942
 11
551.2731628752681
 21
-124.5774932084132
 72
     1
 10
551.2731628752681
 20
-124.5774932084132
 11
553.2108508004803
 21
-178.1100017002818
 72
     1
 10
553.2108508004803
 20
-178.1100017002818
 11
558.338057675146
 21
-177.7449384254114
 97
        1
330
95
 75
     2
 76
     1
 98
        1
 10
0.0
 20
0.0
450
        0
451
        0
460
0.0
461
0.0
452
        0
462
0.0
453
        0
470

  0
ENDBLK
  5
8F
330
8C
100
AcDbEntity
  8
0
100
AcDbBlockEnd
  0
ENDSEC
  0
SECTION
  2
ENTITIES
  0
INSERT
  5
7A
330
70
100
AcDbEntity
  8
Layer 1
100
AcDbBlockReference
  2
Block_0
 10
0.0
 20
0.0
 30
0.0
  0
INSERT
  5
8D
330
70
100
AcDbEntity
  8
Layer 2
100
AcDbBlockReference
  2
Block_1
 10
0.0
 20
0.0
 30
0.0
  0
ENDSEC
  0
SECTION
  2
OBJECTS
  0
DICTIONARY
  5
C
330
0
100
AcDbDictionary
281
     1
  3
ACAD_COLOR
350
63
  3
ACAD_DETAILVIEWSTYLE
350
6A
  3
ACAD_GROUP
350
D
  3
ACAD_LAYOUT
350
62
  3
ACAD_MATERIAL
350
10
  3
ACAD_MLEADERSTYLE
350
66
  3
ACAD_MLINESTYLE
350
5F
  3
ACAD_PLOTSETTINGS
350
61
  3
ACAD_PLOTSTYLENAME
350
E
  3
ACAD_SCALELIST
350
42
  3
ACAD_SECTIONVIEWSTYLE
350
68
  3
ACAD_TABLESTYLE
350
64
  3
ACAD_VISUALSTYLE
350
29
  3
ACDB_RECOMPOSE_DATA
350
9F
  3
AcDbVariableDictionary
350
97
  0
DICTIONARY
  5
63
102
{ACAD_REACTORS
330
C
102
}
330
C
100
AcDbDictionary
281
     1
  0
DICTIONARY
  5
6A
102
{ACAD_REACTORS
330
C
102
}
330
C
100
AcDbDictionary
281
     1
  3
Imperial24
350
6B
  0
DICTIONARY
  5
D
102
{ACAD_REACTORS
330
C
102
}
330
C
100
AcDbDictionary
281
     1
  0
DICTIONARY
  5
62
102
{ACAD_REACTORS
330
C
102
}
330
C
100
AcDbDictionary
281
     1
  3
Layout1
350
6F
  3
Layout2
350
77
  3
Model
350
73
  0
DICTIONARY
  5
10
102
{ACAD_REACTORS
330
C
102
}
330
C
100
AcDbDictionary
281
     1
  3
ByBlock
350
19
  3
ByLayer
350
11
  3
Global
350
21
  0
DICTIONARY
  5
66
102
{ACAD_REACTORS
330
C
102
}
330
C
100
AcDbDictionary
281
     1
  3
Standard
350
67
  0
DICTIONARY
  5
5F
102
{ACAD_REACTORS
330
C
102
}
330
C
100
AcDbDictionary
281
     1
  3
Standard
350
60
  0
DICTIONARY
  5
61
102
{ACAD_REACTORS
330
C
102
}
330
C
100
AcDbDictionary
281
     1
  0
ACDBDICTIONARYWDFLT
  5
E
102
{ACAD_REACTORS
330
C
102
}
330
C
100
AcDbDictionary
281
     1
  3
Normal
350
F
100
AcDbDictionaryWithDefault
340
F
  0
DICTIONARY
  5
42
102
{ACAD_REACTORS
330
C
102
}
330
C
100
AcDbDictionary
281
     1
  3
A0
350
43
  3
A1
350
44
  3
A2
350
45
  3
A3
350
46
  3
A4
350
47
  3
A5
350
48
  3
A6
350
49
  3
A7
350
4A
  3
A8
350
4B
  3
A9
350
4C
  3
B0
350
4D
  3
B1
350
4E
  3
B2
350
4F
  3
B3
350
50
  3
B4
350
51
  3
B5
350
52
  3
B6
350
53
  0
DICTIONARY
  5
68
102
{ACAD_REACTORS
330
C
102
}
330
C
100
AcDbDictionary
281
     1
  3
Imperial24
350
69
  0
DICTIONARY
  5
64
102
{ACAD_REACTORS
330
C
102
}
330
C
100
AcDbDictionary
281
     1
  3
Standard
350
65
  0
DICTIONARY
  5
29
102
{ACAD_REACTORS
330
C
102
}
330
C
100
AcDbDictionary
281
     1
  3
2dWireframe
350
2F
  3
Basic
350
2E
  3
Brighten
350
35
  3
ColorChange
350
39
  3
Conceptual
350
32
  3
Dim
350
34
  3
EdgeColorOff
350
41
  3
Facepattern
350
38
  3
Flat
350
2A
  3
FlatWithEdges
350
2B
  3
Gouraud
350
2C
  3
GouraudWithEdges
350
2D
  3
Hidden
350
31
  3
JitterOff
350
3F
  3
Linepattern
350
37
  3
OverhangOff
350
40
  3
Realistic
350
33
  3
Shaded
350
3E
  3
Shaded with edges
350
3D
  3
Shades of Gray
350
3A
  3
Sketchy
350
3B
  3
Thicken
350
36
  3
Wireframe
350
30
  3
X-Ray
350
3C
  0
XRECORD
  5
9F
102
{ACAD_REACTORS
330
C
102
}
330
C
100
AcDbXrecord
280
     1
 90
        1
330
65
  0
DICTIONARY
  5
97
102
{ACAD_REACTORS
330
C
102
}
330
C
100
AcDbDictionary
281
     1
  3
CANNOSCALE
350
9C
  3
CMLEADERSTYLE
350
99
  3
CTABLESTYLE
350
98
  3
CVIEWDETAILSTYLE
350
9A
  3
CVIEWSECTIONSTYLE
350
9B
  0
ACDBDETAILVIEWSTYLE
  5
6B
102
{ACAD_REACTORS
330
6A
102
}
330
6A
100
AcDbModelDocViewStyle
 70
     0
  3
Imperial24
290
     1
300
Imperial24
 90
        0
100
AcDbDetailViewStyle
 70
     0
 71
     0
 90
        3
 71
     1
340
55
 62
   256
 40
0.24
340
0
 62
   256
 40
0.24
300

 40
0.36
280
     3
 71
     2
340
5D
 90
       25
 62
   256
 71
     3
340
55
 62
   256
 40
0.24
 90
        1
 40
0.75
 90
        1
300
%<\AcVar ViewType \f "%tc1">% %<\AcVar ViewDetailId>%\PSCALE %<\AcVar ViewScale \f "%sn">%
 71
     4
340
5D
 90
       25
 62
   256
340
5D
 90
       25
 62
   256
280
     0
  0
LAYOUT
  5
6F
102
{ACAD_REACTORS
330
62
102
}
330
62
100
AcDbPlotSettings
  1

  2

  4

  6

 40
0.0
 41
0.0
 42
0.0
 43
0.0
 44
0.0
 45
0.0
 46
0.0
 47
0.0
 48
0.0
 49
0.0
140
0.0
141
0.0
142
1.0
143
1.0
 70
   688
 72
     0
 73
     0
 74
     5
  7

 75
    16
147
1.0
 76
     0
 77
     2
 78
   300
148
0.0
149
0.0
100
AcDbLayout
  1
Layout1
 70
     1
 71
     1
 10
0.0
 20
0.0
 11
12.0
 21
9.0
 12
0.0
 22
0.0
 32
0.0
 14
0.0
 24
0.0
 34
0.0
 15
0.0
 25
0.0
 35
0.0
146
0.0
 13
0.0
 23
0.0
 33
0.0
 16
1.0
 26
0.0
 36
0.0
 17
0.0
 27
1.0
 37
0.0
 76
     0
330
6C
  0
LAYOUT
  5
77
102
{ACAD_REACTORS
330
62
102
}
330
62
100
AcDbPlotSettings
  1

  2

  4

  6

 40
0.0
 41
0.0
 42
0.0
 43
0.0
 44
0.0
 45
0.0
 46
0.0
 47
0.0
 48
0.0
 49
0.0
140
0.0
141
0.0
142
1.0
143
1.0
 70
   688
 72
     0
 73
     0
 74
     5
  7

 75
    16
147
1.0
 76
     0
 77
     2
 78
   300
148
0.0
149
0.0
100
AcDbLayout
  1
Layout2
 70
     1
 71
     2
 10
0.0
 20
0.0
 11
12.0
 21
9.0
 12
0.0
 22
0.0
 32
0.0
 14
0.0
 24
0.0
 34
0.0
 15
0.0
 25
0.0
 35
0.0
146
0.0
 13
0.0
 23
0.0
 33
0.0
 16
1.0
 26
0.0
 36
0.0
 17
0.0
 27
1.0
 37
0.0
 76
     0
330
74
  0
LAYOUT
  5
73
102
{ACAD_REACTORS
330
62
102
}
330
62
100
AcDbPlotSettings
  1

  2

  4

  6

 40
0.0
 41
0.0
 42
0.0
 43
0.0
 44
0.0
 45
0.0
 46
0.0
 47
0.0
 48
0.0
 49
0.0
140
0.0
141
0.0
142
1.0
143
1.0
 70
  1712
 72
     0
 73
     0
 74
     0
  7

 75
     0
147
1.0
 76
     0
 77
     2
 78
   300
148
0.0
149
0.0
100
AcDbLayout
  1
Model
 70
     1
 71
     0
 10
0.0
 20
0.0
 11
12.0
 21
9.0
 12
0.0
 22
0.0
 32
0.0
 14
0.0
 24
0.0
 34
0.0
 15
0.0
 25
0.0
 35
0.0
146
0.0
 13
0.0
 23
0.0
 33
0.0
 16
1.0
 26
0.0
 36
0.0
 17
0.0
 27
1.0
 37
0.0
 76
     0
330
70
  0
MATERIAL
  5
19
102
{ACAD_XDICTIONARY
360
1A
102
}
102
{ACAD_REACTORS
330
10
102
}
330
10
100
AcDbMaterial
  1
ByBlock
 72
     0
 43
0.0208333333333333
 43
0.0
 43
0.0
 43
0.0
 43
0.0
 43
0.0208333333333333
 43
0.0
 43
0.0
 43
0.0
 43
0.0
 43
1.0
 43
0.0
 43
0.0
 43
0.0
 43
0.0
 43
1.0
 77
     0
 47
0.0208333333333333
 47
0.0
 47
0.0
 47
0.0
 47
0.0
 47
0.0208333333333333
 47
0.0
 47
0.0
 47
0.0
 47
0.0
 47
1.0
 47
0.0
 47
0.0
 47
0.0
 47
0.0
 47
1.0
171
     0
 49
0.0208333333333333
 49
0.0
 49
0.0
 49
0.0
 49
0.0
 49
0.0208333333333333
 49
0.0
 49
0.0
 49
0.0
 49
0.0
 49
1.0
 49
0.0
 49
0.0
 49
0.0
 49
0.0
 49
1.0
175
     0
142
0.0208333333333333
142
0.0
142
0.0
142
0.0
142
0.0
142
0.0208333333333333
142
0.0
142
0.0
142
0.0
142
0.0
142
1.0
142
0.0
142
0.0
142
0.0
142
0.0
142
1.0
179
     0
144
0.0208333333333333
144
0.0
144
0.0
144
0.0
144
0.0
144
0.0208333333333333
144
0.0
144
0.0
144
0.0
144
0.0
144
1.0
144
0.0
144
0.0
144
0.0
144
0.0
144
1.0
147
0.0208333333333333
147
0.0
147
0.0
147
0.0
147
0.0
147
0.0208333333333333
147
0.0
147
0.0
147
0.0
147
0.0
147
1.0
147
0.0
147
0.0
147
0.0
147
0.0
147
1.0
  0
MATERIAL
  5
11
102
{ACAD_XDICTIONARY
360
12
102
}
102
{ACAD_REACTORS
330
10
102
}
330
10
100
AcDbMaterial
  1
ByLayer
 72
     0
 43
0.0208333333333333
 43
0.0
 43
0.0
 43
0.0
 43
0.0
 43
0.0208333333333333
 43
0.0
 43
0.0
 43
0.0
 43
0.0
 43
1.0
 43
0.0
 43
0.0
 43
0.0
 43
0.0
 43
1.0
 77
     0
 47
0.0208333333333333
 47
0.0
 47
0.0
 47
0.0
 47
0.0
 47
0.0208333333333333
 47
0.0
 47
0.0
 47
0.0
 47
0.0
 47
1.0
 47
0.0
 47
0.0
 47
0.0
 47
0.0
 47
1.0
171
     0
 49
0.0208333333333333
 49
0.0
 49
0.0
 49
0.0
 49
0.0
 49
0.0208333333333333
 49
0.0
 49
0.0
 49
0.0
 49
0.0
 49
1.0
 49
0.0
 49
0.0
 49
0.0
 49
0.0
 49
1.0
175
     0
142
0.0208333333333333
142
0.0
142
0.0
142
0.0
142
0.0
142
0.0208333333333333
142
0.0
142
0.0
142
0.0
142
0.0
142
1.0
142
0.0
142
0.0
142
0.0
142
0.0
142
1.0
179
     0
144
0.0208333333333333
144
0.0
144
0.0
144
0.0
144
0.0
144
0.0208333333333333
144
0.0
144
0.0
144
0.0
144
0.0
144
1.0
144
0.0
144
0.0
144
0.0
144
0.0
144
1.0
147
0.0208333333333333
147
0.0
147
0.0
147
0.0
147
0.0
147
0.0208333333333333
147
0.0
147
0.0
147
0.0
147
0.0
147
1.0
147
0.0
147
0.0
147
0.0
147
0.0
147
1.0
  0
MATERIAL
  5
21
102
{ACAD_XDICTIONARY
360
22
102
}
102
{ACAD_REACTORS
330
10
102
}
330
10
100
AcDbMaterial
  1
Global
 72
     0
 43
0.0208333333333333
 43
0.0
 43
0.0
 43
0.0
 43
0.0
 43
0.0208333333333333
 43
0.0
 43
0.0
 43
0.0
 43
0.0
 43
1.0
 43
0.0
 43
0.0
 43
0.0
 43
0.0
 43
1.0
 77
     0
 47
0.0208333333333333
 47
0.0
 47
0.0
 47
0.0
 47
0.0
 47
0.0208333333333333
 47
0.0
 47
0.0
 47
0.0
 47
0.0
 47
1.0
 47
0.0
 47
0.0
 47
0.0
 47
0.0
 47
1.0
171
     0
 49
0.0208333333333333
 49
0.0
 49
0.0
 49
0.0
 49
0.0
 49
0.0208333333333333
 49
0.0
 49
0.0
 49
0.0
 49
0.0
 49
1.0
 49
0.0
 49
0.0
 49
0.0
 49
0.0
 49
1.0
175
     0
142
0.0208333333333333
142
0.0
142
0.0
142
0.0
142
0.0
142
0.0208333333333333
142
0.0
142
0.0
142
0.0
142
0.0
142
1.0
142
0.0
142
0.0
142
0.0
142
0.0
142
1.0
179
     0
144
0.0208333333333333
144
0.0
144
0.0
144
0.0
144
0.0
144
0.0208333333333333
144
0.0
144
0.0
144
0.0
144
0.0
144
1.0
144
0.0
144
0.0
144
0.0
144
0.0
144
1.0
147
0.0208333333333333
147
0.0
147
0.0
147
0.0
147
0.0
147
0.0208333333333333
147
0.0
147
0.0
147
0.0
147
0.0
147
1.0
147
0.0
147
0.0
147
0.0
147
0.0
147
1.0
  0
MLEADERSTYLE
  5
67
102
{ACAD_REACTORS
330
66
102
}
330
66
100
AcDbMLeaderStyle
179
     2
170
     2
171
     1
172
     0
 90
        2
 40
0.0
 41
0.0
173
     1
 91
-1056964608
340
5B
 92
       -2
290
     1
 42
0.09
291
     1
 43
0.36
  3
Standard
 44
0.18
300

342
55
174
     1
178
     6
175
     1
176
     0
 93
-1056964608
 45
0.18
292
     0
297
     0
 46
0.18
 94
-1056964608
 47
1.0
 49
1.0
140
1.0
293
     1
141
0.0
294
     1
177
     0
142
1.0
295
     1
296
     0
143
0.125
271
     0
272
     9
273
     9
298
     1
  0
MLINESTYLE
  5
60
102
{ACAD_REACTORS
330
5F
102
}
330
5F
100
AcDbMlineStyle
  2
STANDARD
 70
     0
  3

 62
   256
 51
90.0
 52
90.0
 71
     2
 49
0.5
 62
   256
  6
BYLAYER
 49
-0.5
 62
   256
  6
BYLAYER
  0
ACDBPLACEHOLDER
  5
F
102
{ACAD_REACTORS
330
E
102
}
330
E
  0
SCALE
  5
43
102
{ACAD_REACTORS
330
42
102
}
330
42
100
AcDbScale
 70
     0
300
1:1
140
1.0
141
1.0
290
     1
  0
SCALE
  5
44
102
{ACAD_REACTORS
330
42
102
}
330
42
100
AcDbScale
 70
     0
300
1/128" = 1'-0"
140
0.0078125
141
12.0
290
     0
  0
SCALE
  5
45
102
{ACAD_REACTORS
330
42
102
}
330
42
100
AcDbScale
 70
     0
300
1/64" = 1'-0"
140
0.015625
141
12.0
290
     0
  0
SCALE
  5
46
102
{ACAD_REACTORS
330
42
102
}
330
42
100
AcDbScale
 70
     0
300
1/32" = 1'-0"
140
0.03125
141
12.0
290
     0
  0
SCALE
  5
47
102
{ACAD_REACTORS
330
42
102
}
330
42
100
AcDbScale
 70
     0
300
1/16" = 1'-0"
140
0.0625
141
12.0
290
     0
  0
SCALE
  5
48
102
{ACAD_REACTORS
330
42
102
}
330
42
100
AcDbScale
 70
     0
300
3/32" = 1'-0"
140
0.09375
141
12.0
290
     0
  0
SCALE
  5
49
102
{ACAD_REACTORS
330
42
102
}
330
42
100
AcDbScale
 70
     0
300
1/8" = 1'-0"
140
0.125
141
12.0
290
     0
  0
SCALE
  5
4A
102
{ACAD_REACTORS
330
42
102
}
330
42
100
AcDbScale
 70
     0
300
3/16" = 1'-0"
140
0.1875
141
12.0
290
     0
  0
SCALE
  5
4B
102
{ACAD_REACTORS
330
42
102
}
330
42
100
AcDbScale
 70
     0
300
1/4" = 1'-0"
140
0.25
141
12.0
290
     0
  0
SCALE
  5
4C
102
{ACAD_REACTORS
330
42
102
}
330
42
100
AcDbScale
 70
     0
300
3/8" = 1'-0"
140
0.375
141
12.0
290
     0
  0
SCALE
  5
4D
102
{ACAD_REACTORS
330
42
102
}
330
42
100
AcDbScale
 70
     0
300
1/2" = 1'-0"
140
0.5
141
12.0
290
     0
  0
SCALE
  5
4E
102
{ACAD_REACTORS
330
42
102
}
330
42
100
AcDbScale
 70
     0
300
3/4" = 1'-0"
140
0.75
141
12.0
290
     0
  0
SCALE
  5
4F
102
{ACAD_REACTORS
330
42
102
}
330
42
100
AcDbScale
 70
     0
300
1" = 1'-0"
140
1.0
141
12.0
290
     0
  0
SCALE
  5
50
102
{ACAD_REACTORS
330
42
102
}
330
42
100
AcDbScale
 70
     0
300
1-1/2" = 1'-0"
140
1.5
141
12.0
290
     0
  0
SCALE
  5
51
102
{ACAD_REACTORS
330
42
102
}
330
42
100
AcDbScale
 70
     0
300
3" = 1'-0"
140
3.0
141
12.0
290
     0
  0
SCALE
  5
52
102
{ACAD_REACTORS
330
42
102
}
330
42
100
AcDbScale
 70
     0
300
6" = 1'-0"
140
6.0
141
12.0
290
     0
  0
SCALE
  5
53
102
{ACAD_REACTORS
330
42
102
}
330
42
100
AcDbScale
 70
     0
300
1'-0" = 1'-0"
140
12.0
141
12.0
290
     0
  0
ACDBSECTIONVIEWSTYLE
  5
69
102
{ACAD_REACTORS
330
68
102
}
330
68
100
AcDbModelDocViewStyle
 70
     0
  3
Imperial24
290
     1
300
Imperial24
 90
        0
100
AcDbSectionViewStyle
 70
     0
 71
     0
 90
       78
 71
     1
340
55
 62
   256
 40
0.24
340
0
340
0
 62
   256
 40
0.24
300
I, O, Q, S, X, Z
 40
0.48
 90
        3
 40
0.18
 90
        1
 71
     2
340
5D
 90
       25
 62
   256
340
5D
 90
       50
 62
   256
 40
0.24
 40
0.0
 40
0.24
 71
     3
340
55
 62
   256
 40
0.24
 90
        1
 40
0.75
 90
        1
300
%<\AcVar ViewType \f "%tc1">% %<\AcVar ViewSectionStartId>%-%<\AcVar ViewSectionEndId>%\PSCALE %<\AcVar ViewScale \f "%sn">%
 71
     4
 62
   256
 62
   257
300
ANSI31
 40
1.0
 90
        0
290
     0
290
     0
 90
        6
 40
0.0
 40
1.570796326794896
 40
0.2617993877991494
 40
1.308996938995747
 40
-0.2617993877991494
 40
1.832595714594046
  0
TABLESTYLE
  5
65
102
{ACAD_XDICTIONARY
360
9D
102
}
102
{ACAD_REACTORS
330
64
102
}
330
64
100
AcDbTableStyle
280
     0
  3
Standard
 70
     0
 71
     0
 40
0.06
 41
0.06
280
     0
281
     0
  7
Standard
140
0.18
170
     2
 62
     0
 63
     7
283
     0
 90
      512
 91
        0
  1

274
    -2
284
     1
 64
     0
275
    -2
285
     1
 65
     0
276
    -2
286
     1
 66
     0
277
    -2
287
     1
 67
     0
278
    -2
288
     1
 68
     0
279
    -2
289
     1
 69
     0
  7
Standard
140
0.25
170
     5
 62
     0
 63
     7
283
     0
 90
      512
 91
        0
  1

274
    -2
284
     1
 64
     0
275
    -2
285
     1
 65
     0
276
    -2
286
     1
 66
     0
277
    -2
287
     1
 67
     0
278
    -2
288
     1
 68
     0
279
    -2
289
     1
 69
     0
  7
Standard
140
0.18
170
     5
 62
     0
 63
     7
283
     0
 90
      512
 91
        0
  1

274
    -2
284
     1
 64
     0
275
    -2
285
     1
 65
     0
276
    -2
286
     1
 66
     0
277
    -2
287
     1
 67
     0
278
    -2
288
     1
 68
     0
279
    -2
289
     1
 69
     0
  0
VISUALSTYLE
  5
2F
102
{ACAD_REACTORS
330
29
102
}
330
29
100
AcDbVisualStyle
  2
2dWireframe
 70
     4
177
     3
291
     0
 70
    58
 90
        0
176
     1
 90
        2
176
     1
 90
        0
176
     1
 90
        0
176
     1
 40
0.6
176
     1
 40
30.0
176
     1
 62
     7
420
 16777215
176
     1
 90
        1
176
     1
 90
        4
176
     1
 62
     7
176
     1
 62
   257
176
     1
 90
        1
176
     1
 90
        1
176
     1
 40
1.0
176
     1
 90
        0
176
     1
 62
   257
176
     1
 40
1.0
176
     1
 90
        1
176
     1
 90
        6
176
     1
 90
        2
176
     1
 62
     7
176
     1
 90
        5
176
     1
 90
        0
176
     1
 90
        0
176
     1
290
     0
176
     1
 90
        1
176
     1
 40
0.0
176
     1
 90
        0
176
     1
290
     1
176
     1
290
     1
176
     1
290
     0
176
     1
290
     0
176
     1
290
     0
176
     1
290
     0
176
     1
290
     0
176
     1
290
     0
176
     1
290
     0
176
     1
 90
       50
176
     1
 40
0.0
176
     1
 40
1.0
176
     1
 90
        0
176
     1
 62
    18
420
        0
176
     1
 90
       50
176
     1
 90
        3
176
     1
 62
     5
420
      255
176
     1
290
     0
176
     1
 90
       50
176
     1
 90
       50
176
     1
 90
       50
176
     1
290
     0
176
     1
 90
       50
176
     1
 62
   256
176
     0
 40
1.0
176
     0
 90
        2
176
     1
  1
strokes_ogs.tif
176
     1
290
     0
176
     1
 40
1.0
176
     1
 40
1.0
176
     1
  0
VISUALSTYLE
  5
2E
102
{ACAD_REACTORS
330
29
102
}
330
29
100
AcDbVisualStyle
  2
Basic
 70
     7
177
     3
291
     1
 70
    58
 90
        1
176
     1
 90
        0
176
     1
 90
        1
176
     1
 90
        0
176
     1
 40
0.6
176
     1
 40
30.0
176
     1
 62
     7
420
 16777215
176
     1
 90
        0
176
     1
 90
        4
176
     1
 62
     7
176
     1
 62
   257
176
     1
 90
        1
176
     1
 90
        1
176
     1
 40
1.0
176
     1
 90
        8
176
     1
 62
     7
176
     1
 40
1.0
176
     1
 90
        1
176
     1
 90
        6
176
     1
 90
        2
176
     1
 62
     7
176
     1
 90
        5
176
     1
 90
        0
176
     1
 90
        0
176
     1
290
     0
176
     1
 90
        1
176
     1
 40
0.0
176
     1
 90
        0
176
     1
290
     0
176
     1
290
     1
176
     1
290
     1
176
     1
290
     0
176
     1
290
     0
176
     1
290
     0
176
     1
290
     0
176
     1
290
     0
176
     1
290
     0
176
     1
 90
       50
176
     1
 40
0.0
176
     1
 40
1.0
176
     1
 90
        0
176
     1
 62
    18
420
        0
176
     1
 90
       50
176
     1
 90
        3
176
     1
 62
     5
420
      255
176
     1
290
     0
176
     1
 90
       50
176
     1
 90
       50
176
     1
 90
       50
176
     1
290
     0
176
     1
 90
       50
176
     1
 62
   256
176
     0
 40
1.0
176
     0
 90
        2
176
     1
  1
strokes_ogs.tif
176
     1
290
     0
176
     1
 40
1.0
176
     1
 40
1.0
176
     1
  0
VISUALSTYLE
  5
35
102
{ACAD_REACTORS
330
29
102
}
330
29
100
AcDbVisualStyle
  2
Brighten
 70
    12
177
     3
291
     1
 70
    58
 90
        2
176
     1
 90
        2
176
     1
 90
        0
176
     1
 90
        0
176
     1
 40
0.6
176
     1
 40
30.0
176
     1
 62
     7
420
 16777215
176
     1
 90
        1
176
     1
 90
        4
176
     1
 62
     7
176
     1
 62
   257
176
     1
 90
        1
176
     1
 90
        1
176
     1
 40
1.0
176
     1
 90
        8
176
     1
 62
     7
176
     1
 40
1.0
176
     1
 90
        1
176
     1
 90
        6
176
     1
 90
        2
176
     1
 62
     7
176
     1
 90
        5
176
     1
 90
        0
176
     1
 90
        0
176
     1
290
     0
176
     1
 90
        1
176
     1
 40
50.0
176
     1
 90
        0
176
     1
290
     0
176
     1
290
     1
176
     1
290
     1
176
     1
290
     0
176
     1
290
     0
176
     1
290
     0
176
     1
290
     0
176
     1
290
     0
176
     1
290
     0
176
     1
 90
       50
176
     1
 40
0.0
176
     1
 40
1.0
176
     1
 90
        0
176
     1
 62
    18
420
        0
176
     1
 90
       50
176
     1
 90
        3
176
     1
 62
     5
420
      255
176
     1
290
     0
176
     1
 90
       50
176
     1
 90
       50
176
     1
 90
       50
176
     1
290
     0
176
     1
 90
       50
176
     1
 62
   256
176
     0
 40
1.0
176
     0
 90
        2
176
     1
  1
strokes_ogs.tif
176
     1
290
     0
176
     1
 40
1.0
176
     1
 40
1.0
176
     1
  0
VISUALSTYLE
  5
39
102
{ACAD_REACTORS
330
29
102
}
330
29
100
AcDbVisualStyle
  2
ColorChange
 70
    16
177
     3
291
     1
 70
    58
 90
        2
176
     1
 90
        2
176
     1
 90
        3
176
     1
 90
        0
176
     1
 40
0.6
176
     1
 40
30.0
176
     1
 62
     8
420
  8421504
176
     1
 90
        1
176
     1
 90
        4
176
     1
 62
     7
176
     1
 62
   257
176
     1
 90
        1
176
     1
 90
        1
176
     1
 40
1.0
176
     1
 90
        8
176
     1
 62
     8
420
  8421504
176
     1
 40
1.0
176
     1
 90
        1
176
     1
 90
        6
176
     1
 90
        2
176
     1
 62
     7
176
     1
 90
        5
176
     1
 90
        0
176
     1
 90
        0
176
     1
290
     0
176
     1
 90
        1
176
     1
 40
0.0
176
     1
 90
        0
176
     1
290
     0
176
     1
290
     1
176
     1
290
     1
176
     1
290
     0
176
     1
290
     0
176
     1
290
     0
176
     1
290
     0
176
     1
290
     0
176
     1
290
     0
176
     1
 90
       50
176
     1
 40
0.0
176
     1
 40
1.0
176
     1
 90
        0
176
     1
 62
    18
420
        0
176
     1
 90
       50
176
     1
 90
        3
176
     1
 62
     5
420
      255
176
     1
290
     0
176
     1
 90
       50
176
     1
 90
       50
176
     1
 90
       50
176
     1
290
     0
176
     1
 90
       50
176
     1
 62
   256
176
     0
 40
1.0
176
     0
 90
        2
176
     1
  1
strokes_ogs.tif
176
     1
290
     0
176
     1
 40
1.0
176
     1
 40
1.0
176
     1
  0
VISUALSTYLE
  5
32
102
{ACAD_REACTORS
330
29
102
}
330
29
100
AcDbVisualStyle
  2
Conceptual
 70
     9
177
     3
291
     0
 70
    58
 90
        3
176
     1
 90
        2
176
     1
 90
        0
176
     1
 90
        0
176
     1
 40
0.6
176
     1
 40
30.0
176
     1
 62
     7
420
 16777215
176
     1
 90
        2
176
     1
 90
        2
176
     1
 62
     7
176
     1
 62
   257
176
     1
 90
        1
176
     1
 90
        1
176
     1
 40
179.0
176
     1
 90
        8
176
     1
 62
     7
176
     1
 40
1.0
176
     1
 90
        1
176
     1
 90
        6
176
     1
 90
        2
176
     1
 62
     7
176
     1
 90
        3
176
     1
 90
        0
176
     1
 90
        0
176
     1
290
     0
176
     1
 90
        1
176
     1
 40
0.0
176
     1
 90
        0
176
     1
290
     0
176
     1
290
     1
176
     1
290
     1
176
     1
290
     0
176
     1
290
     0
176
     1
290
     0
176
     1
290
     0
176
     1
290
     0
176
     1
290
     0
176
     1
 90
       50
176
     1
 40
0.0
176
     1
 40
1.0
176
     1
 90
        0
176
     1
 62
    18
420
        0
176
     1
 90
       50
176
     1
 90
        3
176
     1
 62
     5
420
      255
176
     1
290
     0
176
     1
 90
       50
176
     1
 90
       50
176
     1
 90
       50
176
     1
290
     0
176
     1
 90
       50
176
     1
 62
   256
176
     0
 40
1.0
176
     0
 90
        2
176
     1
  1
strokes_ogs.tif
176
     1
290
     0
176
     1
 40
1.0
176
     1
 40
1.0
176
     1
  0
VISUALSTYLE
  5
34
102
{ACAD_REACTORS
330
29
102
}
330
29
100
AcDbVisualStyle
  2
Dim
 70
    11
177
     3
291
     1
 70
    58
 90
        2
176
     1
 90
        2
176
     1
 90
        0
176
     1
 90
        0
176
     1
 40
0.6
176
     1
 40
30.0
176
     1
 62
     7
420
 16777215
176
     1
 90
        1
176
     1
 90
        4
176
     1
 62
     7
176
     1
 62
   257
176
     1
 90
        1
176
     1
 90
        1
176
     1
 40
1.0
176
     1
 90
        8
176
     1
 62
     7
176
     1
 40
1.0
176
     1
 90
        1
176
     1
 90
        6
176
     1
 90
        2
176
     1
 62
     7
176
     1
 90
        5
176
     1
 90
        0
176
     1
 90
        0
176
     1
290
     0
176
     1
 90
        1
176
     1
 40
-50.0
176
     1
 90
        0
176
     1
290
     0
176
     1
290
     1
176
     1
290
     1
176
     1
290
     0
176
     1
290
     0
176
     1
290
     0
176
     1
290
     0
176
     1
290
     0
176
     1
290
     0
176
     1
 90
       50
176
     1
 40
0.0
176
     1
 40
1.0
176
     1
 90
        0
176
     1
 62
    18
420
        0
176
     1
 90
       50
176
     1
 90
        3
176
     1
 62
     5
420
      255
176
     1
290
     0
176
     1
 90
       50
176
     1
 90
       50
176
     1
 90
       50
176
     1
290
     0
176
     1
 90
       50
176
     1
 62
   256
176
     0
 40
1.0
176
     0
 90
        2
176
     1
  1
strokes_ogs.tif
176
     1
290
     0
176
     1
 40
1.0
176
     1
 40
1.0
176
     1
  0
VISUALSTYLE
  5
41
102
{ACAD_REACTORS
330
29
102
}
330
29
100
AcDbVisualStyle
  2
EdgeColorOff
 70
    22
177
     3
291
     1
 70
    58
 90
        2
176
     0
 90
        2
176
     0
 90
        0
176
     0
 90
        0
176
     0
 40
0.6
176
     0
 40
30.0
176
     0
 62
     7
420
 16777215
176
     0
 90
        1
176
     0
 90
        4
176
     0
 62
     7
176
     0
 62
   257
176
     0
 90
        1
176
     0
 90
        1
176
     0
 40
1.0
176
     0
 90
        8
176
     2
 62
     7
176
     0
 40
1.0
176
     0
 90
        1
176
     0
 90
        6
176
     0
 90
        2
176
     0
 62
     7
176
     0
 90
        5
176
     0
 90
        0
176
     0
 90
        0
176
     0
290
     0
176
     0
 90
        1
176
     0
 40
0.0
176
     0
 90
        0
176
     0
290
     0
176
     0
290
     1
176
     0
290
     1
176
     0
290
     0
176
     0
290
     0
176
     0
290
     0
176
     0
290
     0
176
     0
290
     0
176
     0
290
     0
176
     0
 90
       50
176
     0
 40
0.0
176
     0
 40
1.0
176
     0
 90
        0
176
     0
 62
    18
420
        0
176
     0
 90
       50
176
     0
 90
        3
176
     0
 62
     5
420
      255
176
     0
290
     0
176
     0
 90
       50
176
     0
 90
       50
176
     0
 90
       50
176
     0
290
     0
176
     0
 90
       50
176
     0
 62
   256
176
     0
 40
1.0
176
     0
 90
        2
176
     0
  1
strokes_ogs.tif
176
     0
290
     0
176
     0
 40
1.0
176
     0
 40
1.0
176
     0
  0
VISUALSTYLE
  5
38
102
{ACAD_REACTORS
330
29
102
}
330
29
100
AcDbVisualStyle
  2
Facepattern
 70
    15
177
     3
291
     1
 70
    58
 90
        2
176
     1
 90
        2
176
     1
 90
        0
176
     1
 90
        0
176
     1
 40
0.6
176
     1
 40
30.0
176
     1
 62
     7
420
 16777215
176
     1
 90
        1
176
     1
 90
        4
176
     1
 62
     7
176
     1
 62
   257
176
     1
 90
        1
176
     1
 90
        1
176
     1
 40
1.0
176
     1
 90
        8
176
     1
 62
     7
176
     1
 40
1.0
176
     1
 90
        1
176
     1
 90
        6
176
     1
 90
        2
176
     1
 62
     7
176
     1
 90
        5
176
     1
 90
        0
176
     1
 90
        0
176
     1
290
     0
176
     1
 90
        1
176
     1
 40
0.0
176
     1
 90
        0
176
     1
290
     0
176
     1
290
     1
176
     1
290
     1
176
     1
290
     0
176
     1
290
     0
176
     1
290
     0
176
     1
290
     0
176
     1
290
     0
176
     1
290
     0
176
     1
 90
       50
176
     1
 40
0.0
176
     1
 40
1.0
176
     1
 90
        0
176
     1
 62
    18
420
        0
176
     1
 90
       50
176
     1
 90
        3
176
     1
 62
     5
420
      255
176
     1
290
     0
176
     1
 90
       50
176
     1
 90
       50
176
     1
 90
       50
176
     1
290
     0
176
     1
 90
       50
176
     1
 62
   256
176
     0
 40
1.0
176
     0
 90
        2
176
     1
  1
strokes_ogs.tif
176
     1
290
     0
176
     1
 40
1.0
176
     1
 40
1.0
176
     1
  0
VISUALSTYLE
  5
2A
102
{ACAD_REACTORS
330
29
102
}
330
29
100
AcDbVisualStyle
  2
Flat
 70
     0
177
     3
291
     1
 70
    58
 90
        2
176
     1
 90
        1
176
     1
 90
        1
176
     1
 90
        2
176
     1
 40
0.6
176
     1
 40
30.0
176
     1
 62
     7
420
 16777215
176
     1
 90
        0
176
     1
 90
        0
176
     1
 62
     7
176
     1
 62
   257
176
     1
 90
        1
176
     1
 90
        1
176
     1
 40
1.0
176
     1
 90
        8
176
     1
 62
     7
176
     1
 40
1.0
176
     1
 90
        1
176
     1
 90
        6
176
     1
 90
        2
176
     1
 62
     7
176
     1
 90
        5
176
     1
 90
        0
176
     1
 90
        0
176
     1
290
     0
176
     1
 90
       13
176
     1
 40
0.0
176
     1
 90
        0
176
     1
290
     0
176
     1
290
     1
176
     1
290
     1
176
     1
290
     0
176
     1
290
     0
176
     1
290
     0
176
     1
290
     0
176
     1
290
     0
176
     1
290
     0
176
     1
 90
       50
176
     1
 40
0.0
176
     1
 40
1.0
176
     1
 90
        0
176
     1
 62
    18
420
        0
176
     1
 90
       50
176
     1
 90
        3
176
     1
 62
     5
420
      255
176
     1
290
     0
176
     1
 90
       50
176
     1
 90
       50
176
     1
 90
       50
176
     1
290
     0
176
     1
 90
       50
176
     1
 62
   256
176
     0
 40
1.0
176
     0
 90
        2
176
     1
  1
strokes_ogs.tif
176
     1
290
     0
176
     1
 40
1.0
176
     1
 40
1.0
176
     1
  0
VISUALSTYLE
  5
2B
102
{ACAD_REACTORS
330
29
102
}
330
29
100
AcDbVisualStyle
  2
FlatWithEdges
 70
     1
177
     3
291
     1
 70
    58
 90
        2
176
     1
 90
        1
176
     1
 90
        1
176
     1
 90
        2
176
     1
 40
0.6
176
     1
 40
30.0
176
     1
 62
     7
420
 16777215
176
     1
 90
        1
176
     1
 90
        0
176
     1
 62
     7
176
     1
 62
   257
176
     1
 90
        1
176
     1
 90
        1
176
     1
 40
1.0
176
     1
 90
        0
176
     1
 62
   257
176
     1
 40
1.0
176
     1
 90
        1
176
     1
 90
        6
176
     1
 90
        2
176
     1
 62
     7
176
     1
 90
        5
176
     1
 90
        0
176
     1
 90
        0
176
     1
290
     0
176
     1
 90
       13
176
     1
 40
0.0
176
     1
 90
        0
176
     1
290
     0
176
     1
290
     1
176
     1
290
     1
176
     1
290
     0
176
     1
290
     0
176
     1
290
     0
176
     1
290
     0
176
     1
290
     0
176
     1
290
     0
176
     1
 90
       50
176
     1
 40
0.0
176
     1
 40
1.0
176
     1
 90
        0
176
     1
 62
    18
420
        0
176
     1
 90
       50
176
     1
 90
        3
176
     1
 62
     5
420
      255
176
     1
290
     0
176
     1
 90
       50
176
     1
 90
       50
176
     1
 90
       50
176
     1
290
     0
176
     1
 90
       50
176
     1
 62
   256
176
     0
 40
1.0
176
     0
 90
        2
176
     1
  1
strokes_ogs.tif
176
     1
290
     0
176
     1
 40
1.0
176
     1
 40
1.0
176
     1
  0
VISUALSTYLE
  5
2C
102
{ACAD_REACTORS
330
29
102
}
330
29
100
AcDbVisualStyle
  2
Gouraud
 70
     2
177
     3
291
     1
 70
    58
 90
        2
176
     1
 90
        2
176
     1
 90
        1
176
     1
 90
        2
176
     1
 40
0.6
176
     1
 40
30.0
176
     1
 62
     7
420
 16777215
176
     1
 90
        0
176
     1
 90
        0
176
     1
 62
     7
176
     1
 62
   257
176
     1
 90
        1
176
     1
 90
        1
176
     1
 40
1.0
176
     1
 90
        0
176
     1
 62
     7
176
     1
 40
1.0
176
     1
 90
        1
176
     1
 90
        6
176
     1
 90
        2
176
     1
 62
     7
176
     1
 90
        5
176
     1
 90
        0
176
     1
 90
        0
176
     1
290
     0
176
     1
 90
       13
176
     1
 40
0.0
176
     1
 90
        0
176
     1
290
     0
176
     1
290
     1
176
     1
290
     1
176
     1
290
     0
176
     1
290
     0
176
     1
290
     0
176
     1
290
     0
176
     1
290
     0
176
     1
290
     0
176
     1
 90
       50
176
     1
 40
0.0
176
     1
 40
1.0
176
     1
 90
        0
176
     1
 62
    18
420
        0
176
     1
 90
       50
176
     1
 90
        3
176
     1
 62
     5
420
      255
176
     1
290
     0
176
     1
 90
       50
176
     1
 90
       50
176
     1
 90
       50
176
     1
290
     0
176
     1
 90
       50
176
     1
 62
   256
176
     0
 40
1.0
176
     0
 90
        2
176
     1
  1
strokes_ogs.tif
176
     1
290
     0
176
     1
 40
1.0
176
     1
 40
1.0
176
     1
  0
VISUALSTYLE
  5
2D
102
{ACAD_REACTORS
330
29
102
}
330
29
100
AcDbVisualStyle
  2
GouraudWithEdges
 70
     3
177
     3
291
     1
 70
    58
 90
        2
176
     1
 90
        2
176
     1
 90
        1
176
     1
 90
        2
176
     1
 40
0.6
176
     1
 40
30.0
176
     1
 62
     7
420
 16777215
176
     1
 90
        1
176
     1
 90
        0
176
     1
 62
     7
176
     1
 62
   257
176
     1
 90
        1
176
     1
 90
        1
176
     1
 40
1.0
176
     1
 90
        0
176
     1
 62
   257
176
     1
 40
1.0
176
     1
 90
        1
176
     1
 90
        6
176
     1
 90
        2
176
     1
 62
     7
176
     1
 90
        5
176
     1
 90
        0
176
     1
 90
        0
176
     1
290
     0
176
     1
 90
       13
176
     1
 40
0.0
176
     1
 90
        0
176
     1
290
     0
176
     1
290
     1
176
     1
290
     1
176
     1
290
     0
176
     1
290
     0
176
     1
290
     0
176
     1
290
     0
176
     1
290
     0
176
     1
290
     0
176
     1
 90
       50
176
     1
 40
0.0
176
     1
 40
1.0
176
     1
 90
        0
176
     1
 62
    18
420
        0
176
     1
 90
       50
176
     1
 90
        3
176
     1
 62
     5
420
      255
176
     1
290
     0
176
     1
 90
       50
176
     1
 90
       50
176
     1
 90
       50
176
     1
290
     0
176
     1
 90
       50
176
     1
 62
   256
176
     0
 40
1.0
176
     0
 90
        2
176
     1
  1
strokes_ogs.tif
176
     1
290
     0
176
     1
 40
1.0
176
     1
 40
1.0
176
     1
  0
VISUALSTYLE
  5
31
102
{ACAD_REACTORS
330
29
102
}
330
29
100
AcDbVisualStyle
  2
Hidden
 70
     6
177
     3
291
     0
 70
    58
 90
        1
176
     1
 90
        2
176
     1
 90
        2
176
     1
 90
        0
176
     1
 40
0.6
176
     1
 40
30.0
176
     1
 62
     7
420
 16777215
176
     1
 90
        2
176
     1
 90
        2
176
     1
 62
     7
176
     1
 62
   257
176
     1
 90
        2
176
     1
 90
        1
176
     1
 40
40.0
176
     1
 90
        0
176
     1
 62
   257
176
     1
 40
1.0
176
     1
 90
        1
176
     1
 90
        6
176
     1
 90
        2
176
     1
 62
     7
176
     1
 90
        3
176
     1
 90
        0
176
     1
 90
        0
176
     1
290
     0
176
     1
 90
        1
176
     1
 40
0.0
176
     1
 90
        0
176
     1
290
     0
176
     1
290
     1
176
     1
290
     1
176
     1
290
     0
176
     1
290
     0
176
     1
290
     0
176
     1
290
     0
176
     1
290
     0
176
     1
290
     0
176
     1
 90
       50
176
     1
 40
0.0
176
     1
 40
1.0
176
     1
 90
        0
176
     1
 62
    18
420
        0
176
     1
 90
       50
176
     1
 90
        3
176
     1
 62
     5
420
      255
176
     1
290
     0
176
     1
 90
       50
176
     1
 90
       50
176
     1
 90
       50
176
     1
290
     0
176
     1
 90
       50
176
     1
 62
   256
176
     0
 40
1.0
176
     0
 90
        2
176
     1
  1
strokes_ogs.tif
176
     1
290
     0
176
     1
 40
1.0
176
     1
 40
1.0
176
     1
  0
VISUALSTYLE
  5
3F
102
{ACAD_REACTORS
330
29
102
}
330
29
100
AcDbVisualStyle
  2
JitterOff
 70
    20
177
     3
291
     1
 70
    58
 90
        2
176
     0
 90
        2
176
     0
 90
        0
176
     0
 90
        0
176
     0
 40
0.6
176
     0
 40
30.0
176
     0
 62
     7
420
 16777215
176
     0
 90
        1
176
     0
 90
        4
176
     0
 62
     7
176
     0
 62
   257
176
     0
 90
        1
176
     0
 90
        1
176
     0
 40
1.0
176
     0
 90
       10
176
     2
 62
     7
176
     0
 40
1.0
176
     0
 90
        1
176
     0
 90
        6
176
     0
 90
        2
176
     0
 62
     7
176
     0
 90
        5
176
     0
 90
        0
176
     0
 90
        0
176
     0
290
     0
176
     0
 90
        1
176
     0
 40
0.0
176
     0
 90
        0
176
     0
290
     0
176
     0
290
     1
176
     0
290
     1
176
     0
290
     0
176
     0
290
     0
176
     0
290
     0
176
     0
290
     0
176
     0
290
     0
176
     0
290
     0
176
     0
 90
       50
176
     0
 40
0.0
176
     0
 40
1.0
176
     0
 90
        0
176
     0
 62
    18
420
        0
176
     0
 90
       50
176
     0
 90
        3
176
     0
 62
     5
420
      255
176
     0
290
     0
176
     0
 90
       50
176
     0
 90
       50
176
     0
 90
       50
176
     0
290
     0
176
     0
 90
       50
176
     0
 62
   256
176
     0
 40
1.0
176
     0
 90
        2
176
     0
  1
strokes_ogs.tif
176
     0
290
     0
176
     0
 40
1.0
176
     0
 40
1.0
176
     0
  0
VISUALSTYLE
  5
37
102
{ACAD_REACTORS
330
29
102
}
330
29
100
AcDbVisualStyle
  2
Linepattern
 70
    14
177
     3
291
     1
 70
    58
 90
        2
176
     1
 90
        2
176
     1
 90
        0
176
     1
 90
        0
176
     1
 40
0.6
176
     1
 40
30.0
176
     1
 62
     7
420
 16777215
176
     1
 90
        1
176
     1
 90
        4
176
     1
 62
     7
176
     1
 62
   257
176
     1
 90
        7
176
     1
 90
        7
176
     1
 40
1.0
176
     1
 90
        8
176
     1
 62
     7
176
     1
 40
1.0
176
     1
 90
        1
176
     1
 90
        6
176
     1
 90
        2
176
     1
 62
     7
176
     1
 90
        5
176
     1
 90
        0
176
     1
 90
        0
176
     1
290
     0
176
     1
 90
        1
176
     1
 40
0.0
176
     1
 90
        0
176
     1
290
     0
176
     1
290
     1
176
     1
290
     1
176
     1
290
     0
176
     1
290
     0
176
     1
290
     0
176
     1
290
     0
176
     1
290
     0
176
     1
290
     0
176
     1
 90
       50
176
     1
 40
0.0
176
     1
 40
1.0
176
     1
 90
        0
176
     1
 62
    18
420
        0
176
     1
 90
       50
176
     1
 90
        3
176
     1
 62
     5
420
      255
176
     1
290
     0
176
     1
 90
       50
176
     1
 90
       50
176
     1
 90
       50
176
     1
290
     0
176
     1
 90
       50
176
     1
 62
   256
176
     0
 40
1.0
176
     0
 90
        2
176
     1
  1
strokes_ogs.tif
176
     1
290
     0
176
     1
 40
1.0
176
     1
 40
1.0
176
     1
  0
VISUALSTYLE
  5
40
102
{ACAD_REACTORS
330
29
102
}
330
29
100
AcDbVisualStyle
  2
OverhangOff
 70
    21
177
     3
291
     1
 70
    58
 90
        2
176
     0
 90
        2
176
     0
 90
        0
176
     0
 90
        0
176
     0
 40
0.6
176
     0
 40
30.0
176
     0
 62
     7
420
 16777215
176
     0
 90
        1
176
     0
 90
        4
176
     0
 62
     7
176
     0
 62
   257
176
     0
 90
        1
176
     0
 90
        1
176
     0
 40
1.0
176
     0
 90
        9
176
     2
 62
     7
176
     0
 40
1.0
176
     0
 90
        1
176
     0
 90
        6
176
     0
 90
        2
176
     0
 62
     7
176
     0
 90
        5
176
     0
 90
        0
176
     0
 90
        0
176
     0
290
     0
176
     0
 90
        1
176
     0
 40
0.0
176
     0
 90
        0
176
     0
290
     0
176
     0
290
     1
176
     0
290
     1
176
     0
290
     0
176
     0
290
     0
176
     0
290
     0
176
     0
290
     0
176
     0
290
     0
176
     0
290
     0
176
     0
 90
       50
176
     0
 40
0.0
176
     0
 40
1.0
176
     0
 90
        0
176
     0
 62
    18
420
        0
176
     0
 90
       50
176
     0
 90
        3
176
     0
 62
     5
420
      255
176
     0
290
     0
176
     0
 90
       50
176
     0
 90
       50
176
     0
 90
       50
176
     0
290
     0
176
     0
 90
       50
176
     0
 62
   256
176
     0
 40
1.0
176
     0
 90
        2
176
     0
  1
strokes_ogs.tif
176
     0
290
     0
176
     0
 40
1.0
176
     0
 40
1.0
176
     0
  0
VISUALSTYLE
  5
33
102
{ACAD_REACTORS
330
29
102
}
330
29
100
AcDbVisualStyle
  2
Realistic
 70
     8
177
     3
291
     0
 70
    58
 90
        2
176
     1
 90
        3
176
     1
 90
        0
176
     1
 90
        2
176
     1
 40
0.6
176
     1
 40
30.0
176
     1
 62
     7
420
 16777215
176
     1
 90
        0
176
     1
 90
        0
176
     1
 62
     7
176
     1
 62
   257
176
     1
 90
        1
176
     1
 90
        1
176
     1
 40
1.0
176
     1
 90
        8
176
     1
 62
   257
176
     1
 40
1.0
176
     1
 90
        1
176
     1
 90
        6
176
     1
 90
        2
176
     1
 62
     7
176
     1
 90
        3
176
     1
 90
        0
176
     1
 90
        0
176
     1
290
     0
176
     1
 90
       13
176
     1
 40
0.0
176
     1
 90
        0
176
     1
290
     0
176
     1
290
     1
176
     1
290
     1
176
     1
290
     0
176
     1
290
     0
176
     1
290
     0
176
     1
290
     0
176
     1
290
     0
176
     1
290
     0
176
     1
 90
       50
176
     1
 40
0.0
176
     1
 40
1.0
176
     1
 90
        0
176
     1
 62
    18
420
        0
176
     1
 90
       50
176
     1
 90
        3
176
     1
 62
     5
420
      255
176
     1
290
     0
176
     1
 90
       50
176
     1
 90
       50
176
     1
 90
       50
176
     1
290
     0
176
     1
 90
       50
176
     1
 62
   256
176
     0
 40
1.0
176
     0
 90
        2
176
     1
  1
strokes_ogs.tif
176
     1
290
     0
176
     1
 40
1.0
176
     1
 40
1.0
176
     1
  0
VISUALSTYLE
  5
3E
102
{ACAD_REACTORS
330
29
102
}
330
29
100
AcDbVisualStyle
  2
Shaded
 70
    27
177
     3
291
     0
 70
    58
 90
        2
176
     1
 90
        2
176
     1
 90
        1
176
     1
 90
        2
176
     1
 40
0.6
176
     1
 40
30.0
176
     1
 62
     7
420
 16777215
176
     1
 90
        0
176
     1
 90
        4
176
     1
 62
     7
176
     1
 62
   257
176
     1
 90
        1
176
     1
 90
        1
176
     1
 40
1.0
176
     1
 90
        8
176
     1
 62
   257
176
     1
 40
1.0
176
     1
 90
        1
176
     1
 90
        6
176
     1
 90
        2
176
     1
 62
     8
420
  7895160
176
     1
 90
        3
176
     1
 90
        0
176
     1
 90
        0
176
     1
290
     0
176
     1
 90
        5
176
     1
 40
0.0
176
     1
 90
        0
176
     1
290
     0
176
     1
290
     1
176
     1
290
     1
176
     1
290
     0
176
     1
290
     0
176
     1
290
     0
176
     1
290
     0
176
     1
290
     0
176
     1
290
     0
176
     1
 90
       50
176
     1
 40
0.0
176
     1
 40
1.0
176
     1
 90
        0
176
     1
 62
    18
420
        0
176
     1
 90
       50
176
     1
 90
        3
176
     1
 62
     5
420
      255
176
     1
290
     0
176
     1
 90
       50
176
     1
 90
       50
176
     1
 90
       50
176
     1
290
     0
176
     1
 90
       50
176
     1
 62
   256
176
     0
 40
1.0
176
     0
 90
        2
176
     1
  1
strokes_ogs.tif
176
     1
290
     0
176
     1
 40
1.0
176
     1
 40
1.0
176
     1
  0
VISUALSTYLE
  5
3D
102
{ACAD_REACTORS
330
29
102
}
330
29
100
AcDbVisualStyle
  2
Shaded with edges
 70
    26
177
     3
291
     0
 70
    58
 90
        2
176
     1
 90
        2
176
     1
 90
        1
176
     1
 90
        2
176
     1
 40
0.6
176
     1
 40
30.0
176
     1
 62
     7
420
 16777215
176
     1
 90
        1
176
     1
 90
        2
176
     1
 62
     7
176
     1
 62
   257
176
     1
 90
        2
176
     1
 90
        1
176
     1
 40
1.0
176
     1
 90
        8
176
     1
 62
   257
176
     1
 40
1.0
176
     1
 90
        1
176
     1
 90
        6
176
     1
 90
        2
176
     1
 62
     7
176
     1
 90
        3
176
     1
 90
        0
176
     1
 90
        0
176
     1
290
     0
176
     1
 90
        5
176
     1
 40
0.0
176
     1
 90
        0
176
     1
290
     0
176
     1
290
     1
176
     1
290
     1
176
     1
290
     0
176
     1
290
     0
176
     1
290
     0
176
     1
290
     0
176
     1
290
     0
176
     1
290
     0
176
     1
 90
       50
176
     1
 40
0.0
176
     1
 40
1.0
176
     1
 90
        0
176
     1
 62
    18
420
        0
176
     1
 90
       50
176
     1
 90
        3
176
     1
 62
     5
420
      255
176
     1
290
     0
176
     1
 90
       50
176
     1
 90
       50
176
     1
 90
       50
176
     1
290
     0
176
     1
 90
       50
176
     1
 62
   256
176
     0
 40
1.0
176
     0
 90
        2
176
     1
  1
strokes_ogs.tif
176
     1
290
     0
176
     1
 40
1.0
176
     1
 40
1.0
176
     1
  0
VISUALSTYLE
  5
3A
102
{ACAD_REACTORS
330
29
102
}
330
29
100
AcDbVisualStyle
  2
Shades of Gray
 70
    23
177
     3
291
     0
 70
    58
 90
        2
176
     1
 90
        2
176
     1
 90
        3
176
     1
 90
        0
176
     1
 40
0.6
176
     1
 40
30.0
176
     1
 62
     7
420
 16777215
176
     1
 90
        2
176
     1
 90
        2
176
     1
 62
     7
176
     1
 62
     7
176
     1
 90
        1
176
     1
 90
        1
176
     1
 40
40.0
176
     1
 90
        8
176
     1
 62
     7
176
     1
 40
1.0
176
     1
 90
        1
176
     1
 90
        6
176
     1
 90
        2
176
     1
 62
     7
176
     1
 90
        3
176
     1
 90
        0
176
     1
 90
        0
176
     1
290
     0
176
     1
 90
        1
176
     1
 40
0.0
176
     1
 90
        0
176
     1
290
     0
176
     1
290
     1
176
     1
290
     1
176
     1
290
     0
176
     1
290
     0
176
     1
290
     0
176
     1
290
     0
176
     1
290
     0
176
     1
290
     0
176
     1
 90
       50
176
     1
 40
0.0
176
     1
 40
1.0
176
     1
 90
        0
176
     1
 62
    18
420
        0
176
     1
 90
       50
176
     1
 90
        3
176
     1
 62
     5
420
      255
176
     1
290
     0
176
     1
 90
       50
176
     1
 90
       50
176
     1
 90
       50
176
     1
290
     0
176
     1
 90
       50
176
     1
 62
   256
176
     0
 40
1.0
176
     0
 90
        2
176
     1
  1
strokes_ogs.tif
176
     1
290
     0
176
     1
 40
1.0
176
     1
 40
1.0
176
     1
  0
VISUALSTYLE
  5
3B
102
{ACAD_REACTORS
330
29
102
}
330
29
100
AcDbVisualStyle
  2
Sketchy
 70
    24
177
     3
291
     0
 70
    58
 90
        1
176
     1
 90
        2
176
     1
 90
        2
176
     1
 90
        0
176
     1
 40
0.6
176
     1
 40
30.0
176
     1
 62
     7
420
 16777215
176
     1
 90
        2
176
     1
 90
        2
176
     1
 62
     7
176
     1
 62
     7
176
     1
 90
        1
176
     1
 90
        1
176
     1
 40
40.0
176
     1
 90
       11
176
     1
 62
     7
176
     1
 40
1.0
176
     1
 90
        1
176
     1
 90
        6
176
     1
 90
        2
176
     1
 62
     7
176
     1
 90
        6
176
     1
 90
        0
176
     1
 90
        0
176
     1
290
     0
176
     1
 90
        1
176
     1
 40
0.0
176
     1
 90
        0
176
     1
290
     0
176
     1
290
     1
176
     1
290
     1
176
     1
290
     0
176
     1
290
     0
176
     1
290
     0
176
     1
290
     0
176
     1
290
     0
176
     1
290
     0
176
     1
 90
       50
176
     1
 40
0.0
176
     1
 40
1.0
176
     1
 90
        0
176
     1
 62
    18
420
        0
176
     1
 90
       50
176
     1
 90
        3
176
     1
 62
     5
420
      255
176
     1
290
     0
176
     1
 90
       50
176
     1
 90
       50
176
     1
 90
       50
176
     1
290
     0
176
     1
 90
       50
176
     1
 62
   256
176
     0
 40
1.0
176
     0
 90
        2
176
     1
  1
strokes_ogs.tif
176
     1
290
     0
176
     1
 40
1.0
176
     1
 40
1.0
176
     1
  0
VISUALSTYLE
  5
36
102
{ACAD_REACTORS
330
29
102
}
330
29
100
AcDbVisualStyle
  2
Thicken
 70
    13
177
     3
291
     1
 70
    58
 90
        2
176
     1
 90
        2
176
     1
 90
        0
176
     1
 90
        0
176
     1
 40
0.6
176
     1
 40
30.0
176
     1
 62
     7
420
 16777215
176
     1
 90
        1
176
     1
 90
        4
176
     1
 62
     7
176
     1
 62
   257
176
     1
 90
        1
176
     1
 90
        1
176
     1
 40
1.0
176
     1
 90
       12
176
     1
 62
     7
176
     1
 40
1.0
176
     1
 90
        1
176
     1
 90
        6
176
     1
 90
        2
176
     1
 62
     7
176
     1
 90
        5
176
     1
 90
        0
176
     1
 90
        0
176
     1
290
     0
176
     1
 90
        1
176
     1
 40
0.0
176
     1
 90
        0
176
     1
290
     0
176
     1
290
     1
176
     1
290
     1
176
     1
290
     0
176
     1
290
     0
176
     1
290
     0
176
     1
290
     0
176
     1
290
     0
176
     1
290
     0
176
     1
 90
       50
176
     1
 40
0.0
176
     1
 40
1.0
176
     1
 90
        0
176
     1
 62
    18
420
        0
176
     1
 90
       50
176
     1
 90
        3
176
     1
 62
     5
420
      255
176
     1
290
     0
176
     1
 90
       50
176
     1
 90
       50
176
     1
 90
       50
176
     1
290
     0
176
     1
 90
       50
176
     1
 62
   256
176
     0
 40
1.0
176
     0
 90
        2
176
     1
  1
strokes_ogs.tif
176
     1
290
     0
176
     1
 40
1.0
176
     1
 40
1.0
176
     1
  0
VISUALSTYLE
  5
30
102
{ACAD_REACTORS
330
29
102
}
330
29
100
AcDbVisualStyle
  2
Wireframe
 70
     5
177
     3
291
     0
 70
    58
 90
        0
176
     1
 90
        2
176
     1
 90
        0
176
     1
 90
        0
176
     1
 40
0.6
176
     1
 40
30.0
176
     1
 62
     7
420
 16777215
176
     1
 90
        1
176
     1
 90
        4
176
     1
 62
     7
176
     1
 62
   257
176
     1
 90
        1
176
     1
 90
        1
176
     1
 40
1.0
176
     1
 90
        0
176
     1
 62
   257
176
     1
 40
1.0
176
     1
 90
        1
176
     1
 90
        6
176
     1
 90
        2
176
     1
 62
     7
176
     1
 90
        3
176
     1
 90
        0
176
     1
 90
        0
176
     1
290
     0
176
     1
 90
        1
176
     1
 40
0.0
176
     1
 90
        0
176
     1
290
     0
176
     1
290
     1
176
     1
290
     1
176
     1
290
     0
176
     1
290
     0
176
     1
290
     0
176
     1
290
     0
176
     1
290
     0
176
     1
290
     0
176
     1
 90
       50
176
     1
 40
0.0
176
     1
 40
1.0
176
     1
 90
        0
176
     1
 62
    18
420
        0
176
     1
 90
       50
176
     1
 90
        3
176
     1
 62
     5
420
      255
176
     1
290
     0
176
     1
 90
       50
176
     1
 90
       50
176
     1
 90
       50
176
     1
290
     0
176
     1
 90
       50
176
     1
 62
   256
176
     0
 40
1.0
176
     0
 90
        2
176
     1
  1
strokes_ogs.tif
176
     1
290
     0
176
     1
 40
1.0
176
     1
 40
1.0
176
     1
  0
VISUALSTYLE
  5
3C
102
{ACAD_REACTORS
330
29
102
}
330
29
100
AcDbVisualStyle
  2
X-Ray
 70
    25
177
     3
291
     0
 70
    58
 90
        2
176
     1
 90
        2
176
     1
 90
        1
176
     1
 90
        1
176
     1
 40
0.5
176
     1
 40
30.0
176
     1
 62
     7
420
 16777215
176
     1
 90
        1
176
     1
 90
        0
176
     1
 62
     7
176
     1
 62
   257
176
     1
 90
        1
176
     1
 90
        1
176
     1
 40
1.0
176
     1
 90
        8
176
     1
 62
     7
176
     1
 40
1.0
176
     1
 90
        1
176
     1
 90
        6
176
     1
 90
        2
176
     1
 62
     7
176
     1
 90
        3
176
     1
 90
        0
176
     1
 90
        0
176
     1
290
     0
176
     1
 90
       13
176
     1
 40
0.0
176
     1
 90
        0
176
     1
290
     0
176
     1
290
     1
176
     1
290
     1
176
     1
290
     0
176
     1
290
     0
176
     1
290
     0
176
     1
290
     0
176
     1
290
     0
176
     1
290
     0
176
     1
 90
       50
176
     1
 40
0.0
176
     1
 40
1.0
176
     1
 90
        0
176
     1
 62
    18
420
        0
176
     1
 90
       50
176
     1
 90
        3
176
     1
 62
     5
420
      255
176
     1
290
     0
176
     1
 90
       50
176
     1
 90
       50
176
     1
 90
       50
176
     1
290
     0
176
     1
 90
       50
176
     1
 62
   256
176
     0
 40
1.0
176
     0
 90
        2
176
     1
  1
strokes_ogs.tif
176
     1
290
     0
176
     1
 40
1.0
176
     1
 40
1.0
176
     1
  0
DICTIONARYVAR
  5
9C
102
{ACAD_REACTORS
330
97
102
}
330
97
100
DictionaryVariables
280
     0
  1
1:1
  0
DICTIONARYVAR
  5
99
102
{ACAD_REACTORS
330
97
102
}
330
97
100
DictionaryVariables
280
     0
  1
STANDARD
  0
DICTIONARYVAR
  5
98
102
{ACAD_REACTORS
330
97
102
}
330
97
100
DictionaryVariables
280
     0
  1
STANDARD
  0
DICTIONARYVAR
  5
9A
102
{ACAD_REACTORS
330
97
102
}
330
97
100
DictionaryVariables
280
     0
  1
Imperial24
  0
DICTIONARYVAR
  5
9B
102
{ACAD_REACTORS
330
97
102
}
330
97
100
DictionaryVariables
280
     0
  1
Imperial24
  0
DICTIONARY
  5
1A
330
19
100
AcDbDictionary
280
     1
281
     1
  3
BUMPTILE
360
1C
  3
DIFFUSETILE
360
1B
  3
OPACITYTILE
360
1F
  3
REFLECTIONTILE
360
1E
  3
REFRACTIONTILE
360
20
  3
SPECULARTILE
360
1D
  0
DICTIONARY
  5
12
330
11
100
AcDbDictionary
280
     1
281
     1
  3
BUMPTILE
360
14
  3
DIFFUSETILE
360
13
  3
OPACITYTILE
360
17
  3
REFLECTIONTILE
360
16
  3
REFRACTIONTILE
360
18
  3
SPECULARTILE
360
15
  0
DICTIONARY
  5
22
330
21
100
AcDbDictionary
280
     1
281
     1
  3
BUMPTILE
360
24
  3
DIFFUSETILE
360
23
  3
OPACITYTILE
360
27
  3
REFLECTIONTILE
360
26
  3
REFRACTIONTILE
360
28
  3
SPECULARTILE
360
25
  0
DICTIONARY
  5
9D
330
65
100
AcDbDictionary
280
     1
281
     1
  3
ACAD_ROUNDTRIP_2008_TABLESTYLE_CELLSTYLEMAP
360
9E
  0
XRECORD
  5
1C
102
{ACAD_REACTORS
330
1A
102
}
330
1A
100
AcDbXrecord
280
     1
270
     1
271
     1
  0
XRECORD
  5
1B
102
{ACAD_REACTORS
330
1A
102
}
330
1A
100
AcDbXrecord
280
     1
270
     1
271
     1
  0
XRECORD
  5
1F
102
{ACAD_REACTORS
330
1A
102
}
330
1A
100
AcDbXrecord
280
     1
270
     1
271
     1
  0
XRECORD
  5
1E
102
{ACAD_REACTORS
330
1A
102
}
330
1A
100
AcDbXrecord
280
     1
270
     1
271
     1
  0
XRECORD
  5
20
102
{ACAD_REACTORS
330
1A
102
}
330
1A
100
AcDbXrecord
280
     1
270
     1
271
     1
  0
XRECORD
  5
1D
102
{ACAD_REACTORS
330
1A
102
}
330
1A
100
AcDbXrecord
280
     1
270
     1
271
     1
  0
XRECORD
  5
14
102
{ACAD_REACTORS
330
12
102
}
330
12
100
AcDbXrecord
280
     1
270
     1
271
     1
  0
XRECORD
  5
13
102
{ACAD_REACTORS
330
12
102
}
330
12
100
AcDbXrecord
280
     1
270
     1
271
     1
  0
XRECORD
  5
17
102
{ACAD_REACTORS
330
12
102
}
330
12
100
AcDbXrecord
280
     1
270
     1
271
     1
  0
XRECORD
  5
16
102
{ACAD_REACTORS
330
12
102
}
330
12
100
AcDbXrecord
280
     1
270
     1
271
     1
  0
XRECORD
  5
18
102
{ACAD_REACTORS
330
12
102
}
330
12
100
AcDbXrecord
280
     1
270
     1
271
     1
  0
XRECORD
  5
15
102
{ACAD_REACTORS
330
12
102
}
330
12
100
AcDbXrecord
280
     1
270
     1
271
     1
  0
XRECORD
  5
24
102
{ACAD_REACTORS
330
22
102
}
330
22
100
AcDbXrecord
280
     1
270
     1
271
     1
  0
XRECORD
  5
23
102
{ACAD_REACTORS
330
22
102
}
330
22
100
AcDbXrecord
280
     1
270
     1
271
     1
  0
XRECORD
  5
27
102
{ACAD_REACTORS
330
22
102
}
330
22
100
AcDbXrecord
280
     1
270
     1
271
     1
  0
XRECORD
  5
26
102
{ACAD_REACTORS
330
22
102
}
330
22
100
AcDbXrecord
280
     1
270
     1
271
     1
  0
XRECORD
  5
28
102
{ACAD_REACTORS
330
22
102
}
330
22
100
AcDbXrecord
280
     1
270
     1
271
     1
  0
XRECORD
  5
25
102
{ACAD_REACTORS
330
22
102
}
330
22
100
AcDbXrecord
280
     1
270
     1
271
     1
  0
CELLSTYLEMAP
  5
9E
102
{ACAD_REACTORS
330
9D
102
}
330
9D
100
AcDbCellStyleMap
 90
        3
300
CELLSTYLE
  1
TABLEFORMAT_BEGIN
 90
        5
170
     1
 91
        0
 92
    32768
 62
   257
 93
        1
300
CONTENTFORMAT
  1
CONTENTFORMAT_BEGIN
 90
        0
 91
        0
 92
      512
 93
        0
300

 40
0.0
140
1.0
 94
        5
 62
     0
340
55
144
0.25
309
CONTENTFORMAT_END
171
     0
 94
        0
309
TABLEFORMAT_END
  1
CELLSTYLE_BEGIN
 90
        1
 91
        1
300
_TITLE
309
CELLSTYLE_END
300
CELLSTYLE
  1
TABLEFORMAT_BEGIN
 90
        5
170
     1
 91
        0
 92
        0
 62
   257
 93
        1
300
CONTENTFORMAT
  1
CONTENTFORMAT_BEGIN
 90
        0
 91
        0
 92
      512
 93
        0
300

 40
0.0
140
1.0
 94
        5
 62
     0
340
55
144
0.18
309
CONTENTFORMAT_END
171
     0
 94
        0
309
TABLEFORMAT_END
  1
CELLSTYLE_BEGIN
 90
        2
 91
        1
300
_HEADER
309
CELLSTYLE_END
300
CELLSTYLE
  1
TABLEFORMAT_BEGIN
 90
        5
170
     1
 91
        0
 92
        0
 62
   257
 93
        1
300
CONTENTFORMAT
  1
CONTENTFORMAT_BEGIN
 90
        0
 91
        0
 92
      512
 93
        0
300

 40
0.0
140
1.0
 94
        2
 62
     0
340
55
144
0.18
309
CONTENTFORMAT_END
171
     0
 94
        0
309
TABLEFORMAT_END
  1
CELLSTYLE_BEGIN
 90
        3
 91
        2
300
_DATA
309
CELLSTYLE_END
  0
ENDSEC
  0
EOF
